<mxfile host="Electron" agent="Mozilla/5.0 (Macintosh; Intel Mac OS X 10_15_7) AppleWebKit/537.36 (KHTML, like Gecko) draw.io/26.0.9 Chrome/128.0.6613.186 Electron/32.2.5 Safari/537.36" version="26.0.9">
  <diagram name="페이지-1" id="haFQ3cjzrRD_-kjVblgc">
    <mxGraphModel dx="1114" dy="836" grid="1" gridSize="10" guides="1" tooltips="1" connect="1" arrows="1" fold="1" page="1" pageScale="1" pageWidth="827" pageHeight="1169" background="none" math="0" shadow="0">
      <root>
        <mxCell id="0" />
        <mxCell id="1" parent="0" />
        <mxCell id="W51DfU3OVTZ-6x-1tD1t-30" value="" style="rounded=0;whiteSpace=wrap;html=1;" parent="1" vertex="1">
          <mxGeometry x="460" y="60" width="700" height="480" as="geometry" />
        </mxCell>
        <mxCell id="W51DfU3OVTZ-6x-1tD1t-41" value="" style="rounded=1;whiteSpace=wrap;html=1;dashed=1;strokeWidth=2;strokeColor=#99FFFF;" parent="1" vertex="1">
          <mxGeometry x="480" y="70" width="650" height="460" as="geometry" />
        </mxCell>
        <mxCell id="W51DfU3OVTZ-6x-1tD1t-5" value="" style="rounded=0;whiteSpace=wrap;html=1;" parent="1" vertex="1">
          <mxGeometry x="745" y="170" width="120" height="330" as="geometry" />
        </mxCell>
        <mxCell id="W51DfU3OVTZ-6x-1tD1t-2" value="" style="shape=image;verticalLabelPosition=bottom;labelBackgroundColor=default;verticalAlign=top;aspect=fixed;imageAspect=0;image=data:image/png,iVBORw0KGgoAAAANSUhEUgAAAGQAAABkCAYAAABw4pVUAAAAAXNSR0IArs4c6QAAAERlWElmTU0AKgAAAAgAAYdpAAQAAAABAAAAGgAAAAAAA6ABAAMAAAABAAEAAKACAAQAAAABAAAAZKADAAQAAAABAAAAZAAAAAAvu95BAAAWpklEQVR4Ae09CXRb1ZVPu2zJsizZliVZ3m3ZcRLHWY2TgaRMmQIBEiBhSUnonC7plE6HAmfodAbS6WmnBdpDGUo7DEOhEBISCCkBD0szYUkcExwSJ/EieZN3S7YlWZu1a979ioys6H8t/zsO4JcT///eXd+7/7/lvvu+EFpMiy2w2AKLLbDYAostsNgCiy2w2ALMtwCLeZbUHPedeqvR7nbtnnbZV7s8M7lev08YCAU51FSXB8phsQMCHt+dyRdMZGdktWYJsv5wZ8MNLZdHeljKZTHIntAedknz8n/vNg78cNg8Lgmh0OWsY9qyWIiFNLICW0V+8ZOG9ed+toe1J5g2syQJ590g+07977UdI/rXB6ZGsqN14nN5KCszE/G53OjiBb/3BnzI5nQhn98/R5fiXLV1mapyy/a1N3w4B8BwZl4N8uKJNx493t36qMfvI+QIeDxUVahBxQolyhaL8PM3r+LTbip4g60OBzKMj6PukSHk9fkIXkKuILShauVPdzZu/Y+0mScgnLcW+dPxQ499pD/1UCCI33IspVpTjFaUVyAu58p6IxK0D/IF/OhsTzfSDw1hM4UQh81B12jX/OLe9bf+ayLadODzYpBXTr616/+6Tr4Arz+Xw0Ebltahwry8dPS7YmiGJozoxPnzyB8M4G6WhzbWNOz45rqbXmFaQcYN0tTSJDk2cN5ktE8J2Cw22lRfj5SyXKb1XhB+o1OT6IO2z1AwGEJ5Epl3Q+U6xdb6TVYmlWEzyQx49Tqn3gRjwP2KisovjTGgPip5Lqorq4BbNGEz80fMQ4eIDIN/GDXIvpNvr2sb6roG9JNLslFNUTGDql4ZrJYUlyJZloRQ5uyQbtPrp5samNSMUYP0m4cP4IUeMXtaVVWNWCzGe0Qm654WL6jTGm0NUUeoa/f40L60GJEQMWaQl5rf/J5urK8I5BQXFKB8qZRE5Be/OA/XrUihICrSOdZX8ufmwz9gqlaMGOTYsWPcjtHu38C0kIunhfUVVUzpd8XyWVWpJWaQUGdc98ehDZhQlhGDdHMmnh+xGkWgUG1JKRIJhUzodkXzyMR1XFJcQug4ap3I0HNMzzKhMG2DvN76jrJtsGsHKJMpACVLmdDrC8FjCX74xMIMQlfcBrsOn3pXQ1dx2gYZNI//xe52EHxWVWkRh0ObJd06XTZ66J5hag/J4XayDdPjB+gKp9V6r7a8ten8iH4NKJEnzZkd6Ogq9UWiJyYwOTmEyueGuhr2tzRdR0d/WgbRTQzs82NfD/iqVuO340p1FtJpoES0UOfVVTVEG4BbpWfC8GIiGip42gZ5ueXwwz3GAWLuV6HWEAtBKkHzBYMGyeRmeOD/Qj0QsqwsVK4sJKqoNxoKXjj+xk/SrW9aBjnQ3JxxblC/B4SC97aurDxd+bToxDyxrUha/LcbChuF8L84q/C6LJ7YTotpmsT1eCzhXdzbuTCie/RA84HwaJ8iv7QMYvYM7B23TRL+quXYGBl84jZF0fTQhRyBX8pXVGul5UcjnKrkVe/nSeQVAo4gvIERAVyGq5DPR0tLwg+myW4WWLzBtLqulA1y5Mx7lW1Dui1QR9jxq9YQi/PLUOW5IqRC2cEleSVjc0sRqsiqMMmEOW/Ell+OfE1xMZLgNoF0ZrDj9r0tR8JTsBSEp2wQnXHokNPrwsM4DOTViM1OmUUK6pGj8tic02RQHoccRkbDRDkb+7nq8QoeksvrZhmnTa+lyjel1tzf8vYt7aPdS0GIUiZH6tyF23RihVik3VKQApZqA6WKr8nLJ9z0QHduuHv5/lNv3ZoKj5QM0mXs/R/YkmWzYapXnYqcrxQueLphcy4YCqKu0d7nUql80gZ5/uPXf903MSwH5lp1EQ5SEKciJyEul8UNSfnZRtz/G/CgHEhIwAACTJOh4ZhO2SIREcwBfPsmR3LwNPiXycpISpum7hbJhRH9/cCUjyNHljI8zZUKskfVogLNWtXqgtUFK0uDhT5hgajg7WQrkSoeGL9QrPq9WlSmurZoI6dYUnKjVCC9ZIKQKt9ofJh9wswL0tmhjgdhazsaTnaflEF6h3oOTjosPGACvhsI52EqwRshKsgo1eZqRyI8N7E2+Zfn1W6WC2W9kTKmrrDBpJaodi3JrbkPZmk4H9TKypucBbYieYZMx5QceHCXlYanwWbnNK9/xrI/Gd4JDfLa6b8uPz+o+zowg26q4uKKNBnmiXCgwe2K6cpaVq03Hm4mT/THeOV0yrJ5EqM2p/KlWB7wENjyrUtlghx9LCzdPMSgSS927WcHOr+x/5N36hLxSmiQnvG+Q24/9krgtLoSprnEbSK+CeESvsSiDCqWQ0OQIeMpdQ8ZLN1yHodvIKMFXVShgnrQjQwnlXJ4Gwk/Fyby+L2swanhg4noKQ2y/5OmnZ3jvcR7V5RfgJRyYkxPxDMhHA/a/jyxrEGlUrmokP1+72YqeDqwQMgX3nslIQad8kSydaAjCUpKxQUyGYKpMKT2se7Kl0/+ZRcVA1KDQIB0+4j+6VAoRCz+wFfDVMrPzP9JuaScsmvQ2XS5Fu80sfHFlFzgY/M4irut3eHOnYRxeXZ5t0KU+1MScMrFMA3m4AU0tGXnaN9/QtuSMSEFqD+u/f2AeTQLCGvxViW4SZhIMHDWyKueoOI1ND0kszhtXS6fi/G9YH/Iz5pyWVrB4FQ6VMuqH2NqkBdnZKDqiyFRQ5axLM3xpU+RyY5rkKbPPsq7MKz7DhBl4KkbbFUykdiIHZJwxZQr135Lv3TEOd5t89iY6R/jKG7z2qUWh00PsuKAZ4tyeNnbOSzObJ7OzbLSMpQhCDth8QC/+8BnTXHdHHEN0mM2HLK4bIQm9ZVViMdQgHRupqy5Ul7ZQVWxKY/lM5vXJqPCYQKGZeSALCpeZbKyc/gtaabCSRYG2xQrysPd/rTbzjGap16LR3uJQQ6eerfx3LBuAyDLJBJUVqCOR5dyGayIM9iSb1MRnp/seMnstjDzOlIJuggDWedMHS9QoeI3+vswW2IilSvVsxt5OMLz6lc/bVofy/cSg+hN/bPRh5GtyViidPJ4NT6ozS3tIqPVW/pXmJwmxgdxMnmR8okZ084+c9/ySD72Cm+JlC8Zji1PK4/tulqLIzrxPzgZ0Gsa3BfLZ45B9n5y5D79eD/xSpQqlYxGH4p4oudjhUfn7d7pvYFQgJlHMZpxgnuQafVNv0SFJhKIX6SCpwLLy5aiEhzZCalrrE/z55OH/zGafo5BLgzrf0VEH3I+D2+JRk73HgZGIZv/OzL6HnPPUrPbvIQMPt/lZrd1ea+tt4pMDofLepJJJyREdsK5GUhdo32/iJY7a5AXm9/4txFLOPoQgt0g6I2pJOZlmkpzSknPUTgDM7+GOfpCJXCTO2ecj5PJ10q0k2K+eIoMnmp5dNTjsGVc/OKJw/8c4TFrEGyM70EhzKiqi5jdlhVwhZQzK6fXeXVEoYW6OvwzG6lkCzl80vGPio4MBkf8Isf7RqeN34/gEQYB13DfxBAxdmjy84kjWxEEJq48Nq+FjE+X1VDq9LmY3VwhE0ZR7vQ5JX2OPlK3CnalnKQgTxkE3mBNfngp0mcaLDrSeoRYeRMGsSD/LXDWARKcEmI64T3uT0l5Bty3wLi10Al08Hl9t5HqwWKfIYWlCVDLwwaBU8q2AOtGYEMYxO31NkZ4SnHQF9MpFOCRdlk48rE+LXms4Gx3G0uPp2qksFjc6Lwv4CPVhcMir0M0j1TuI655oPF43evhSiiOG2V2GT8fMVZ+uasPhMVLfhRSxitPVBYMhcKH/eIgBlEwLU9oECGi247DEvEQMsQrp1MmjIpn8wcCRHdJGCTE+nyKc7lnOywUTOugC3Z97DgWuvSQDJRh18Rd6TVUCLd7/OQP+rG9mE1zOmo2PtqLE2EQPNrPTuk8F79awKjoCRTeXI7DlI04cXcL46DOKbJ5HVKJSXaq3dQ+OyHonuqWSI05rQ6fPan96zkMcSaEWO7YskheyBWm9eBE6ONdvd7Pq85hcycBhxCCA5VhBkFMe60OO4KoCSZTBjejDPM7F48nXnANxytPpmxqZrIez37Mp41niL3wUZdR6wl4SJ/yRDzxeY9RMhwX8paTwdItt+C2jqRMjvAE3BNviJTFfoPPCddjdJIwVASPkasf+WvJGOEVK6XHlYwuUg4GmJoxL4X/dIwB/DiI+0mE7yXXYLD6kjKaBfAhAkgCLh+JeegI3BMGuaHhBltpXiHxdAziT0jA9z2YTL6QbxUZPx6f9/pCHSOI1glcIyxe8M3osuh7v8+/NjpP9x6+NjRkMhFsSvM0gzetvskFGcIgcKOWKp6DKyB2DQ7CLWMJz+Jmp9WxTMvEZUYxXzQdW3658/hogwVcJGRyvSHfGjJYOuVdgwOzD746W/FfER6zBoEPdKmkeTMAaDf0oxmvJ4JD+zrj92ipmGRys2aPFFDhzSdMxMt8n4q/J+CmrAMVbSxsxuNBHYP9RDF+EZy7Nmz5ZQRn1iDwtbRalfYRAMAxNfgkEVPJ4XPKOiYMSjJ+An7mg0xtlZLJoCqHreUMtuBBMhzdpE5t9zkot3vJaOOVn+nR454oHC1bVVD6s2icWYNA4T2NNz+hVYTPXPSOjaApGzM9CXhTWWz3j6MFR99XS0v6ZRkycvdKNPI83Odlyloq5BVDZKz9LP/9TK3PzDYb6hsPT+a0BWUj39pw6+PRcucYBADYYncTe+h4mdKq68Jz8znLl2jalO7tHsc9VAQSgWgHjrllfPFFJRNgfDYvKOBn76DCc3hdO6ngycKgLT/VY6cxblLw9JbkFl7SJpcYZNua6z+o02gJ7+zEtJX4zF2yAqnwpr02Rc9UD+ngDrFQ+WLFU1Q85gOmEOX/Ft5QMt46c+8Gm8c+61oiw0umvH9sDE1Yw0GRKzU1zTsaNh+LpbvEIIBQICnaKskQE0/rmW49HlPC/V0scSp5eDpwP/wMFc1SefX9cqG8jQqHSViuMPdsjbz6ISqedp/9j0z0EoFAELX1hsflLKEomC3NvD2e3LgG2b5203idqvpPQODyuFHHAOkDFI8naRkOu6mDJ44UAQNkiuwGOJ5AhcMEDGTkKCRXUfHSW/RXW90W0kUtFW0s7IKhFzndYc/MyuKa5+5ZfdtYLA7k4xoEABUob3dhToET7jsMBsyMmBFDNu0Eg7vNY32FikEpq9RdGFJVyoRSAxUeHRg+AtEPMkAWFR+r27YPdKabwBAdgwaCjUqa78waQ/9AxpPUIJs2bfLXqit+DKto+ELBZ7jrYiJZPFZNx1TXY1S8IOB5lWJlOe7fm5gMLgBecBBolaK+IlGgd8dU52+tnmkVlZ7Jwk7rdQi6LGjLGlXFA9u3bycdA0gNAsJ2NNz8bI2y3AD3A8ZxZLSa4ZZ2wvFXD+imeylXvnCQpi5v2Y3F4sJtYl6Wja5QCV9sLZKob4ODQMCbih/2GjdgHX9EhZMszGixoEHTOIG+RFXWt6txy+yqPB4PSoMAQYVSvQ2cX5BadToigpvI0PjjDfrYk3bTBxBUnYgNDj19rVG9NrswS/2IRJA9CU9Zsglws/lZJo248F8aVOtyqnKqDiWiBZ1MM5NHvUF/wrZJxAvWLq26TgINPi1bnKu8MxFNUrV7+q97j54ytH0NmK2rqUWV6sJEfJOCw7m+wpAyYfcRzQyiDJ1Bzz95fO713oBHjY0rDIYCROOxWZwg9lrP4K88DOHrCR5L9BuqaMlovnA/OjqaOcwa67F6rKRehVgaqrwefxX7VGd493pded37P9i04zoqfIAltemSr5RvyzFlGy2uaS5M3Yrx9wbB4nQTUXEB6sENkbRRILQTy/17urJj6cPGGO3G4wYjxoCgkbaeHkKMTCT1q6Sq7bEy4+WTei23137DvKKo6mlggAMi0IX+vni80ioDowyikaFEh2jSYp4kEcjGOgwzNYiD2PO9vcjj8xIarCjS/i7ZDy4nZRDg+q0N2+4vkasJ5xa4jm0uYkZMCKT7B44fjNmNnXqz/i66vFKlB5kgG44npEpLhm9zOpFuOOwaw+4R673rbyN1XMbySNogQLhEWb4bpo444gOd7tbF8qKVd+OdvwH78CttxnNHo/fJaTGlIAYZbePnPwCZIJsCNWVQK/ZXwfoF2kqrLPtuKgxSMsidDZv31xZWYu8YQiMTEyiyBZmKQCpcmJUYZya+hlf05vap9idwPiX9qHhHYMCzfbLzqUksw+g2XQMymUwjk5+3yzJNVceOdZsPpsI/5QqX5xbdmsETErWIPAmpCEwGF57YEfv4A8dHTrrOG9tfpgrxTIYf4MCexoXJ9gPAc8Qx+kO6++/x5MJbAYtASNBGmhzlrfHwqMqSmvbGMnjm2CtvtvSevQnK4SM0kQONsXhM5eHVx2fHx4ScjPf4HP7+annFO4l4t4fa+XwL/+/cQd92l9dxnd3nzGfCDUIlt2PAgD0aYYM0Vqw8vHvjnVup8OPB0jLIu23vit7rPGOecJj5EDR881UbZr/rEU8I02VcFieE46Rc+CMAkxzEcuH1BzHZCKJAJnbz5OMdzyyXfyYTRzCmVb909IXZ55vNxxFMd+GnLDaW1eZEAhdS4Ze2wvjnjPYc7Tz5KAiDT0isrV6SitwvHe4nne3455HCIWbXLrnqkV2NW3+eTiVTHkMiQnat37qnPK9oAvKgSHTQVwTnq3K12G14dTtCVLdCUWxM1xjAIG2DAHG1ovxe+E0mmKnAdu9XNUV8fPCl6wpFyb102oGWQe5ouL6pTlVJnJswWszYq2mko8sXkjbaC75co229e+2NCSccVBWlZRBgrMlXbBUJ8PiJE8wwiF9lg8xXIEXvE4nxtqxGnhd3WzaVpqBtkNtW3jhQX6x9FYQ6ZmZQ58WdsVSU+KLiRu+kriiq2QttQbcutA0CClQGCnaqpAoX3Lcb+hBE5n3ZU3SsgRJHfErl6NtM1JkRg8B279LCyodgQwgi8iAy78ueoqNxatWVD2+v3R527dKsOCMGAR2+2XDzM1UFJcREHOKPJm2kx9Jpqrzw5NHxatXK8sGdV215iimtGDMIKFQkU94BUY8Qx9TahV0IzPrtmKozLT7EFF/fSdQRztSU52vupsUwhphRg9zTuKUZD24nQAa8IZ3DtMe4GHUXPguTlqlpG6FIXZH24zvW3EDUlynNGDUIKFUoK9ycnyUjRvUzej0aM88eX2RK5wXjA2utyKkA/M1Ir6IgfwvTyjBuENiqXFlUex8EE4N39cO2s4zvmzDdCMnwG8b7P8fO4t/BxV4J6KpWFS/9LmxtJ0ObCk7azsVEQp7/+LUnP9K3/giMAh8AqykqQfC158hXcBLRXylwmDW29fWgriEDMSbCVsBG7eon7t1wO2VMcLr6z5tBQKH//vDgnpa+M4/gM4uEHAGPj7Saiz9wz/BJ33QbgIxuGv/AfT8ODuzBoTzgWock4PJCf1O15uc7G7cQXm4yWjrl82oQUOzlE0eu6zB2Hxw2j0uiFYXvosOPn8B+Cjgor4QUwCGzHp8f2ZwOfPXNUQnPIO3L1NXb7lh3/btzAAxn5t0goC/8LGk/1/yrbpNhd+SbXAzXY97Y4YBzR6Wi5A8D6889DMf+5k3QRcaXxSDRlTjw6dtftzjt37HOOOpmPDO5br9XGA1f6Hshl+8WCTImszJEZ7Mzpc/etfb6owut06L8xRZYbIHFFlhsgcUWWGyBxRZYbAG6LfD/gg78/JqoLtQAAAAASUVORK5CYII=;" parent="1" vertex="1">
          <mxGeometry x="760" y="180" width="90" height="90" as="geometry" />
        </mxCell>
        <mxCell id="W51DfU3OVTZ-6x-1tD1t-3" value="" style="shape=image;verticalLabelPosition=bottom;labelBackgroundColor=default;verticalAlign=top;aspect=fixed;imageAspect=0;image=data:image/png,iVBORw0KGgoAAAANSUhEUgAAAGQAAABkCAYAAABw4pVUAAAAAXNSR0IArs4c6QAAAERlWElmTU0AKgAAAAgAAYdpAAQAAAABAAAAGgAAAAAAA6ABAAMAAAABAAEAAKACAAQAAAABAAAAZKADAAQAAAABAAAAZAAAAAAvu95BAAAWpklEQVR4Ae09CXRb1ZVPu2zJsizZliVZ3m3ZcRLHWY2TgaRMmQIBEiBhSUnonC7plE6HAmfodAbS6WmnBdpDGUo7DEOhEBISCCkBD0szYUkcExwSJ/EieZN3S7YlWZu1a979ioys6H8t/zsO4JcT///eXd+7/7/lvvu+EFpMiy2w2AKLLbDYAostsNgCiy2w2ALMtwCLeZbUHPedeqvR7nbtnnbZV7s8M7lev08YCAU51FSXB8phsQMCHt+dyRdMZGdktWYJsv5wZ8MNLZdHeljKZTHIntAedknz8n/vNg78cNg8Lgmh0OWsY9qyWIiFNLICW0V+8ZOG9ed+toe1J5g2syQJ590g+07977UdI/rXB6ZGsqN14nN5KCszE/G53OjiBb/3BnzI5nQhn98/R5fiXLV1mapyy/a1N3w4B8BwZl4N8uKJNx493t36qMfvI+QIeDxUVahBxQolyhaL8PM3r+LTbip4g60OBzKMj6PukSHk9fkIXkKuILShauVPdzZu/Y+0mScgnLcW+dPxQ499pD/1UCCI33IspVpTjFaUVyAu58p6IxK0D/IF/OhsTzfSDw1hM4UQh81B12jX/OLe9bf+ayLadODzYpBXTr616/+6Tr4Arz+Xw0Ebltahwry8dPS7YmiGJozoxPnzyB8M4G6WhzbWNOz45rqbXmFaQcYN0tTSJDk2cN5ktE8J2Cw22lRfj5SyXKb1XhB+o1OT6IO2z1AwGEJ5Epl3Q+U6xdb6TVYmlWEzyQx49Tqn3gRjwP2KisovjTGgPip5Lqorq4BbNGEz80fMQ4eIDIN/GDXIvpNvr2sb6roG9JNLslFNUTGDql4ZrJYUlyJZloRQ5uyQbtPrp5samNSMUYP0m4cP4IUeMXtaVVWNWCzGe0Qm654WL6jTGm0NUUeoa/f40L60GJEQMWaQl5rf/J5urK8I5BQXFKB8qZRE5Be/OA/XrUihICrSOdZX8ufmwz9gqlaMGOTYsWPcjtHu38C0kIunhfUVVUzpd8XyWVWpJWaQUGdc98ehDZhQlhGDdHMmnh+xGkWgUG1JKRIJhUzodkXzyMR1XFJcQug4ap3I0HNMzzKhMG2DvN76jrJtsGsHKJMpACVLmdDrC8FjCX74xMIMQlfcBrsOn3pXQ1dx2gYZNI//xe52EHxWVWkRh0ObJd06XTZ66J5hag/J4XayDdPjB+gKp9V6r7a8ten8iH4NKJEnzZkd6Ogq9UWiJyYwOTmEyueGuhr2tzRdR0d/WgbRTQzs82NfD/iqVuO340p1FtJpoES0UOfVVTVEG4BbpWfC8GIiGip42gZ5ueXwwz3GAWLuV6HWEAtBKkHzBYMGyeRmeOD/Qj0QsqwsVK4sJKqoNxoKXjj+xk/SrW9aBjnQ3JxxblC/B4SC97aurDxd+bToxDyxrUha/LcbChuF8L84q/C6LJ7YTotpmsT1eCzhXdzbuTCie/RA84HwaJ8iv7QMYvYM7B23TRL+quXYGBl84jZF0fTQhRyBX8pXVGul5UcjnKrkVe/nSeQVAo4gvIERAVyGq5DPR0tLwg+myW4WWLzBtLqulA1y5Mx7lW1Dui1QR9jxq9YQi/PLUOW5IqRC2cEleSVjc0sRqsiqMMmEOW/Ell+OfE1xMZLgNoF0ZrDj9r0tR8JTsBSEp2wQnXHokNPrwsM4DOTViM1OmUUK6pGj8tic02RQHoccRkbDRDkb+7nq8QoeksvrZhmnTa+lyjel1tzf8vYt7aPdS0GIUiZH6tyF23RihVik3VKQApZqA6WKr8nLJ9z0QHduuHv5/lNv3ZoKj5QM0mXs/R/YkmWzYapXnYqcrxQueLphcy4YCqKu0d7nUql80gZ5/uPXf903MSwH5lp1EQ5SEKciJyEul8UNSfnZRtz/G/CgHEhIwAACTJOh4ZhO2SIREcwBfPsmR3LwNPiXycpISpum7hbJhRH9/cCUjyNHljI8zZUKskfVogLNWtXqgtUFK0uDhT5hgajg7WQrkSoeGL9QrPq9WlSmurZoI6dYUnKjVCC9ZIKQKt9ofJh9wswL0tmhjgdhazsaTnaflEF6h3oOTjosPGACvhsI52EqwRshKsgo1eZqRyI8N7E2+Zfn1W6WC2W9kTKmrrDBpJaodi3JrbkPZmk4H9TKypucBbYieYZMx5QceHCXlYanwWbnNK9/xrI/Gd4JDfLa6b8uPz+o+zowg26q4uKKNBnmiXCgwe2K6cpaVq03Hm4mT/THeOV0yrJ5EqM2p/KlWB7wENjyrUtlghx9LCzdPMSgSS927WcHOr+x/5N36hLxSmiQnvG+Q24/9krgtLoSprnEbSK+CeESvsSiDCqWQ0OQIeMpdQ8ZLN1yHodvIKMFXVShgnrQjQwnlXJ4Gwk/Fyby+L2swanhg4noKQ2y/5OmnZ3jvcR7V5RfgJRyYkxPxDMhHA/a/jyxrEGlUrmokP1+72YqeDqwQMgX3nslIQad8kSydaAjCUpKxQUyGYKpMKT2se7Kl0/+ZRcVA1KDQIB0+4j+6VAoRCz+wFfDVMrPzP9JuaScsmvQ2XS5Fu80sfHFlFzgY/M4irut3eHOnYRxeXZ5t0KU+1MScMrFMA3m4AU0tGXnaN9/QtuSMSEFqD+u/f2AeTQLCGvxViW4SZhIMHDWyKueoOI1ND0kszhtXS6fi/G9YH/Iz5pyWVrB4FQ6VMuqH2NqkBdnZKDqiyFRQ5axLM3xpU+RyY5rkKbPPsq7MKz7DhBl4KkbbFUykdiIHZJwxZQr135Lv3TEOd5t89iY6R/jKG7z2qUWh00PsuKAZ4tyeNnbOSzObJ7OzbLSMpQhCDth8QC/+8BnTXHdHHEN0mM2HLK4bIQm9ZVViMdQgHRupqy5Ul7ZQVWxKY/lM5vXJqPCYQKGZeSALCpeZbKyc/gtaabCSRYG2xQrysPd/rTbzjGap16LR3uJQQ6eerfx3LBuAyDLJBJUVqCOR5dyGayIM9iSb1MRnp/seMnstjDzOlIJuggDWedMHS9QoeI3+vswW2IilSvVsxt5OMLz6lc/bVofy/cSg+hN/bPRh5GtyViidPJ4NT6ozS3tIqPVW/pXmJwmxgdxMnmR8okZ084+c9/ySD72Cm+JlC8Zji1PK4/tulqLIzrxPzgZ0Gsa3BfLZ45B9n5y5D79eD/xSpQqlYxGH4p4oudjhUfn7d7pvYFQgJlHMZpxgnuQafVNv0SFJhKIX6SCpwLLy5aiEhzZCalrrE/z55OH/zGafo5BLgzrf0VEH3I+D2+JRk73HgZGIZv/OzL6HnPPUrPbvIQMPt/lZrd1ea+tt4pMDofLepJJJyREdsK5GUhdo32/iJY7a5AXm9/4txFLOPoQgt0g6I2pJOZlmkpzSknPUTgDM7+GOfpCJXCTO2ecj5PJ10q0k2K+eIoMnmp5dNTjsGVc/OKJw/8c4TFrEGyM70EhzKiqi5jdlhVwhZQzK6fXeXVEoYW6OvwzG6lkCzl80vGPio4MBkf8Isf7RqeN34/gEQYB13DfxBAxdmjy84kjWxEEJq48Nq+FjE+X1VDq9LmY3VwhE0ZR7vQ5JX2OPlK3CnalnKQgTxkE3mBNfngp0mcaLDrSeoRYeRMGsSD/LXDWARKcEmI64T3uT0l5Bty3wLi10Al08Hl9t5HqwWKfIYWlCVDLwwaBU8q2AOtGYEMYxO31NkZ4SnHQF9MpFOCRdlk48rE+LXms4Gx3G0uPp2qksFjc6Lwv4CPVhcMir0M0j1TuI655oPF43evhSiiOG2V2GT8fMVZ+uasPhMVLfhRSxitPVBYMhcKH/eIgBlEwLU9oECGi247DEvEQMsQrp1MmjIpn8wcCRHdJGCTE+nyKc7lnOywUTOugC3Z97DgWuvSQDJRh18Rd6TVUCLd7/OQP+rG9mE1zOmo2PtqLE2EQPNrPTuk8F79awKjoCRTeXI7DlI04cXcL46DOKbJ5HVKJSXaq3dQ+OyHonuqWSI05rQ6fPan96zkMcSaEWO7YskheyBWm9eBE6ONdvd7Pq85hcycBhxCCA5VhBkFMe60OO4KoCSZTBjejDPM7F48nXnANxytPpmxqZrIez37Mp41niL3wUZdR6wl4SJ/yRDzxeY9RMhwX8paTwdItt+C2jqRMjvAE3BNviJTFfoPPCddjdJIwVASPkasf+WvJGOEVK6XHlYwuUg4GmJoxL4X/dIwB/DiI+0mE7yXXYLD6kjKaBfAhAkgCLh+JeegI3BMGuaHhBltpXiHxdAziT0jA9z2YTL6QbxUZPx6f9/pCHSOI1glcIyxe8M3osuh7v8+/NjpP9x6+NjRkMhFsSvM0gzetvskFGcIgcKOWKp6DKyB2DQ7CLWMJz+Jmp9WxTMvEZUYxXzQdW3658/hogwVcJGRyvSHfGjJYOuVdgwOzD746W/FfER6zBoEPdKmkeTMAaDf0oxmvJ4JD+zrj92ipmGRys2aPFFDhzSdMxMt8n4q/J+CmrAMVbSxsxuNBHYP9RDF+EZy7Nmz5ZQRn1iDwtbRalfYRAMAxNfgkEVPJ4XPKOiYMSjJ+An7mg0xtlZLJoCqHreUMtuBBMhzdpE5t9zkot3vJaOOVn+nR454oHC1bVVD6s2icWYNA4T2NNz+hVYTPXPSOjaApGzM9CXhTWWz3j6MFR99XS0v6ZRkycvdKNPI83Odlyloq5BVDZKz9LP/9TK3PzDYb6hsPT+a0BWUj39pw6+PRcucYBADYYncTe+h4mdKq68Jz8znLl2jalO7tHsc9VAQSgWgHjrllfPFFJRNgfDYvKOBn76DCc3hdO6ngycKgLT/VY6cxblLw9JbkFl7SJpcYZNua6z+o02gJ7+zEtJX4zF2yAqnwpr02Rc9UD+ngDrFQ+WLFU1Q85gOmEOX/Ft5QMt46c+8Gm8c+61oiw0umvH9sDE1Yw0GRKzU1zTsaNh+LpbvEIIBQICnaKskQE0/rmW49HlPC/V0scSp5eDpwP/wMFc1SefX9cqG8jQqHSViuMPdsjbz6ISqedp/9j0z0EoFAELX1hsflLKEomC3NvD2e3LgG2b5203idqvpPQODyuFHHAOkDFI8naRkOu6mDJ44UAQNkiuwGOJ5AhcMEDGTkKCRXUfHSW/RXW90W0kUtFW0s7IKhFzndYc/MyuKa5+5ZfdtYLA7k4xoEABUob3dhToET7jsMBsyMmBFDNu0Eg7vNY32FikEpq9RdGFJVyoRSAxUeHRg+AtEPMkAWFR+r27YPdKabwBAdgwaCjUqa78waQ/9AxpPUIJs2bfLXqit+DKto+ELBZ7jrYiJZPFZNx1TXY1S8IOB5lWJlOe7fm5gMLgBecBBolaK+IlGgd8dU52+tnmkVlZ7Jwk7rdQi6LGjLGlXFA9u3bycdA0gNAsJ2NNz8bI2y3AD3A8ZxZLSa4ZZ2wvFXD+imeylXvnCQpi5v2Y3F4sJtYl6Wja5QCV9sLZKob4ODQMCbih/2GjdgHX9EhZMszGixoEHTOIG+RFXWt6txy+yqPB4PSoMAQYVSvQ2cX5BadToigpvI0PjjDfrYk3bTBxBUnYgNDj19rVG9NrswS/2IRJA9CU9Zsglws/lZJo248F8aVOtyqnKqDiWiBZ1MM5NHvUF/wrZJxAvWLq26TgINPi1bnKu8MxFNUrV7+q97j54ytH0NmK2rqUWV6sJEfJOCw7m+wpAyYfcRzQyiDJ1Bzz95fO713oBHjY0rDIYCROOxWZwg9lrP4K88DOHrCR5L9BuqaMlovnA/OjqaOcwa67F6rKRehVgaqrwefxX7VGd493pded37P9i04zoqfIAltemSr5RvyzFlGy2uaS5M3Yrx9wbB4nQTUXEB6sENkbRRILQTy/17urJj6cPGGO3G4wYjxoCgkbaeHkKMTCT1q6Sq7bEy4+WTei23137DvKKo6mlggAMi0IX+vni80ioDowyikaFEh2jSYp4kEcjGOgwzNYiD2PO9vcjj8xIarCjS/i7ZDy4nZRDg+q0N2+4vkasJ5xa4jm0uYkZMCKT7B44fjNmNnXqz/i66vFKlB5kgG44npEpLhm9zOpFuOOwaw+4R673rbyN1XMbySNogQLhEWb4bpo444gOd7tbF8qKVd+OdvwH78CttxnNHo/fJaTGlIAYZbePnPwCZIJsCNWVQK/ZXwfoF2kqrLPtuKgxSMsidDZv31xZWYu8YQiMTEyiyBZmKQCpcmJUYZya+hlf05vap9idwPiX9qHhHYMCzfbLzqUksw+g2XQMymUwjk5+3yzJNVceOdZsPpsI/5QqX5xbdmsETErWIPAmpCEwGF57YEfv4A8dHTrrOG9tfpgrxTIYf4MCexoXJ9gPAc8Qx+kO6++/x5MJbAYtASNBGmhzlrfHwqMqSmvbGMnjm2CtvtvSevQnK4SM0kQONsXhM5eHVx2fHx4ScjPf4HP7+annFO4l4t4fa+XwL/+/cQd92l9dxnd3nzGfCDUIlt2PAgD0aYYM0Vqw8vHvjnVup8OPB0jLIu23vit7rPGOecJj5EDR881UbZr/rEU8I02VcFieE46Rc+CMAkxzEcuH1BzHZCKJAJnbz5OMdzyyXfyYTRzCmVb909IXZ55vNxxFMd+GnLDaW1eZEAhdS4Ze2wvjnjPYc7Tz5KAiDT0isrV6SitwvHe4nne3455HCIWbXLrnqkV2NW3+eTiVTHkMiQnat37qnPK9oAvKgSHTQVwTnq3K12G14dTtCVLdCUWxM1xjAIG2DAHG1ovxe+E0mmKnAdu9XNUV8fPCl6wpFyb102oGWQe5ouL6pTlVJnJswWszYq2mko8sXkjbaC75co229e+2NCSccVBWlZRBgrMlXbBUJ8PiJE8wwiF9lg8xXIEXvE4nxtqxGnhd3WzaVpqBtkNtW3jhQX6x9FYQ6ZmZQ58WdsVSU+KLiRu+kriiq2QttQbcutA0CClQGCnaqpAoX3Lcb+hBE5n3ZU3SsgRJHfErl6NtM1JkRg8B279LCyodgQwgi8iAy78ueoqNxatWVD2+v3R527dKsOCMGAR2+2XDzM1UFJcREHOKPJm2kx9Jpqrzw5NHxatXK8sGdV215iimtGDMIKFQkU94BUY8Qx9TahV0IzPrtmKozLT7EFF/fSdQRztSU52vupsUwhphRg9zTuKUZD24nQAa8IZ3DtMe4GHUXPguTlqlpG6FIXZH24zvW3EDUlynNGDUIKFUoK9ycnyUjRvUzej0aM88eX2RK5wXjA2utyKkA/M1Ir6IgfwvTyjBuENiqXFlUex8EE4N39cO2s4zvmzDdCMnwG8b7P8fO4t/BxV4J6KpWFS/9LmxtJ0ObCk7azsVEQp7/+LUnP9K3/giMAh8AqykqQfC158hXcBLRXylwmDW29fWgriEDMSbCVsBG7eon7t1wO2VMcLr6z5tBQKH//vDgnpa+M4/gM4uEHAGPj7Saiz9wz/BJ33QbgIxuGv/AfT8ODuzBoTzgWock4PJCf1O15uc7G7cQXm4yWjrl82oQUOzlE0eu6zB2Hxw2j0uiFYXvosOPn8B+Cjgor4QUwCGzHp8f2ZwOfPXNUQnPIO3L1NXb7lh3/btzAAxn5t0goC/8LGk/1/yrbpNhd+SbXAzXY97Y4YBzR6Wi5A8D6889DMf+5k3QRcaXxSDRlTjw6dtftzjt37HOOOpmPDO5br9XGA1f6Hshl+8WCTImszJEZ7Mzpc/etfb6owut06L8xRZYbIHFFlhsgcUWWGyBxRZYbAG6LfD/gg78/JqoLtQAAAAASUVORK5CYII=;" parent="1" vertex="1">
          <mxGeometry x="760" y="290" width="90" height="90" as="geometry" />
        </mxCell>
        <mxCell id="W51DfU3OVTZ-6x-1tD1t-4" value="" style="shape=image;verticalLabelPosition=bottom;labelBackgroundColor=default;verticalAlign=top;aspect=fixed;imageAspect=0;image=data:image/png,iVBORw0KGgoAAAANSUhEUgAAAGQAAABkCAYAAABw4pVUAAAAAXNSR0IArs4c6QAAAERlWElmTU0AKgAAAAgAAYdpAAQAAAABAAAAGgAAAAAAA6ABAAMAAAABAAEAAKACAAQAAAABAAAAZKADAAQAAAABAAAAZAAAAAAvu95BAAAWpklEQVR4Ae09CXRb1ZVPu2zJsizZliVZ3m3ZcRLHWY2TgaRMmQIBEiBhSUnonC7plE6HAmfodAbS6WmnBdpDGUo7DEOhEBISCCkBD0szYUkcExwSJ/EieZN3S7YlWZu1a979ioys6H8t/zsO4JcT///eXd+7/7/lvvu+EFpMiy2w2AKLLbDYAostsNgCiy2w2ALMtwCLeZbUHPedeqvR7nbtnnbZV7s8M7lev08YCAU51FSXB8phsQMCHt+dyRdMZGdktWYJsv5wZ8MNLZdHeljKZTHIntAedknz8n/vNg78cNg8Lgmh0OWsY9qyWIiFNLICW0V+8ZOG9ed+toe1J5g2syQJ590g+07977UdI/rXB6ZGsqN14nN5KCszE/G53OjiBb/3BnzI5nQhn98/R5fiXLV1mapyy/a1N3w4B8BwZl4N8uKJNx493t36qMfvI+QIeDxUVahBxQolyhaL8PM3r+LTbip4g60OBzKMj6PukSHk9fkIXkKuILShauVPdzZu/Y+0mScgnLcW+dPxQ499pD/1UCCI33IspVpTjFaUVyAu58p6IxK0D/IF/OhsTzfSDw1hM4UQh81B12jX/OLe9bf+ayLadODzYpBXTr616/+6Tr4Arz+Xw0Ebltahwry8dPS7YmiGJozoxPnzyB8M4G6WhzbWNOz45rqbXmFaQcYN0tTSJDk2cN5ktE8J2Cw22lRfj5SyXKb1XhB+o1OT6IO2z1AwGEJ5Epl3Q+U6xdb6TVYmlWEzyQx49Tqn3gRjwP2KisovjTGgPip5Lqorq4BbNGEz80fMQ4eIDIN/GDXIvpNvr2sb6roG9JNLslFNUTGDql4ZrJYUlyJZloRQ5uyQbtPrp5samNSMUYP0m4cP4IUeMXtaVVWNWCzGe0Qm654WL6jTGm0NUUeoa/f40L60GJEQMWaQl5rf/J5urK8I5BQXFKB8qZRE5Be/OA/XrUihICrSOdZX8ufmwz9gqlaMGOTYsWPcjtHu38C0kIunhfUVVUzpd8XyWVWpJWaQUGdc98ehDZhQlhGDdHMmnh+xGkWgUG1JKRIJhUzodkXzyMR1XFJcQug4ap3I0HNMzzKhMG2DvN76jrJtsGsHKJMpACVLmdDrC8FjCX74xMIMQlfcBrsOn3pXQ1dx2gYZNI//xe52EHxWVWkRh0ObJd06XTZ66J5hag/J4XayDdPjB+gKp9V6r7a8ten8iH4NKJEnzZkd6Ogq9UWiJyYwOTmEyueGuhr2tzRdR0d/WgbRTQzs82NfD/iqVuO340p1FtJpoES0UOfVVTVEG4BbpWfC8GIiGip42gZ5ueXwwz3GAWLuV6HWEAtBKkHzBYMGyeRmeOD/Qj0QsqwsVK4sJKqoNxoKXjj+xk/SrW9aBjnQ3JxxblC/B4SC97aurDxd+bToxDyxrUha/LcbChuF8L84q/C6LJ7YTotpmsT1eCzhXdzbuTCie/RA84HwaJ8iv7QMYvYM7B23TRL+quXYGBl84jZF0fTQhRyBX8pXVGul5UcjnKrkVe/nSeQVAo4gvIERAVyGq5DPR0tLwg+myW4WWLzBtLqulA1y5Mx7lW1Dui1QR9jxq9YQi/PLUOW5IqRC2cEleSVjc0sRqsiqMMmEOW/Ell+OfE1xMZLgNoF0ZrDj9r0tR8JTsBSEp2wQnXHokNPrwsM4DOTViM1OmUUK6pGj8tic02RQHoccRkbDRDkb+7nq8QoeksvrZhmnTa+lyjel1tzf8vYt7aPdS0GIUiZH6tyF23RihVik3VKQApZqA6WKr8nLJ9z0QHduuHv5/lNv3ZoKj5QM0mXs/R/YkmWzYapXnYqcrxQueLphcy4YCqKu0d7nUql80gZ5/uPXf903MSwH5lp1EQ5SEKciJyEul8UNSfnZRtz/G/CgHEhIwAACTJOh4ZhO2SIREcwBfPsmR3LwNPiXycpISpum7hbJhRH9/cCUjyNHljI8zZUKskfVogLNWtXqgtUFK0uDhT5hgajg7WQrkSoeGL9QrPq9WlSmurZoI6dYUnKjVCC9ZIKQKt9ofJh9wswL0tmhjgdhazsaTnaflEF6h3oOTjosPGACvhsI52EqwRshKsgo1eZqRyI8N7E2+Zfn1W6WC2W9kTKmrrDBpJaodi3JrbkPZmk4H9TKypucBbYieYZMx5QceHCXlYanwWbnNK9/xrI/Gd4JDfLa6b8uPz+o+zowg26q4uKKNBnmiXCgwe2K6cpaVq03Hm4mT/THeOV0yrJ5EqM2p/KlWB7wENjyrUtlghx9LCzdPMSgSS927WcHOr+x/5N36hLxSmiQnvG+Q24/9krgtLoSprnEbSK+CeESvsSiDCqWQ0OQIeMpdQ8ZLN1yHodvIKMFXVShgnrQjQwnlXJ4Gwk/Fyby+L2swanhg4noKQ2y/5OmnZ3jvcR7V5RfgJRyYkxPxDMhHA/a/jyxrEGlUrmokP1+72YqeDqwQMgX3nslIQad8kSydaAjCUpKxQUyGYKpMKT2se7Kl0/+ZRcVA1KDQIB0+4j+6VAoRCz+wFfDVMrPzP9JuaScsmvQ2XS5Fu80sfHFlFzgY/M4irut3eHOnYRxeXZ5t0KU+1MScMrFMA3m4AU0tGXnaN9/QtuSMSEFqD+u/f2AeTQLCGvxViW4SZhIMHDWyKueoOI1ND0kszhtXS6fi/G9YH/Iz5pyWVrB4FQ6VMuqH2NqkBdnZKDqiyFRQ5axLM3xpU+RyY5rkKbPPsq7MKz7DhBl4KkbbFUykdiIHZJwxZQr135Lv3TEOd5t89iY6R/jKG7z2qUWh00PsuKAZ4tyeNnbOSzObJ7OzbLSMpQhCDth8QC/+8BnTXHdHHEN0mM2HLK4bIQm9ZVViMdQgHRupqy5Ul7ZQVWxKY/lM5vXJqPCYQKGZeSALCpeZbKyc/gtaabCSRYG2xQrysPd/rTbzjGap16LR3uJQQ6eerfx3LBuAyDLJBJUVqCOR5dyGayIM9iSb1MRnp/seMnstjDzOlIJuggDWedMHS9QoeI3+vswW2IilSvVsxt5OMLz6lc/bVofy/cSg+hN/bPRh5GtyViidPJ4NT6ozS3tIqPVW/pXmJwmxgdxMnmR8okZ084+c9/ySD72Cm+JlC8Zji1PK4/tulqLIzrxPzgZ0Gsa3BfLZ45B9n5y5D79eD/xSpQqlYxGH4p4oudjhUfn7d7pvYFQgJlHMZpxgnuQafVNv0SFJhKIX6SCpwLLy5aiEhzZCalrrE/z55OH/zGafo5BLgzrf0VEH3I+D2+JRk73HgZGIZv/OzL6HnPPUrPbvIQMPt/lZrd1ea+tt4pMDofLepJJJyREdsK5GUhdo32/iJY7a5AXm9/4txFLOPoQgt0g6I2pJOZlmkpzSknPUTgDM7+GOfpCJXCTO2ecj5PJ10q0k2K+eIoMnmp5dNTjsGVc/OKJw/8c4TFrEGyM70EhzKiqi5jdlhVwhZQzK6fXeXVEoYW6OvwzG6lkCzl80vGPio4MBkf8Isf7RqeN34/gEQYB13DfxBAxdmjy84kjWxEEJq48Nq+FjE+X1VDq9LmY3VwhE0ZR7vQ5JX2OPlK3CnalnKQgTxkE3mBNfngp0mcaLDrSeoRYeRMGsSD/LXDWARKcEmI64T3uT0l5Bty3wLi10Al08Hl9t5HqwWKfIYWlCVDLwwaBU8q2AOtGYEMYxO31NkZ4SnHQF9MpFOCRdlk48rE+LXms4Gx3G0uPp2qksFjc6Lwv4CPVhcMir0M0j1TuI655oPF43evhSiiOG2V2GT8fMVZ+uasPhMVLfhRSxitPVBYMhcKH/eIgBlEwLU9oECGi247DEvEQMsQrp1MmjIpn8wcCRHdJGCTE+nyKc7lnOywUTOugC3Z97DgWuvSQDJRh18Rd6TVUCLd7/OQP+rG9mE1zOmo2PtqLE2EQPNrPTuk8F79awKjoCRTeXI7DlI04cXcL46DOKbJ5HVKJSXaq3dQ+OyHonuqWSI05rQ6fPan96zkMcSaEWO7YskheyBWm9eBE6ONdvd7Pq85hcycBhxCCA5VhBkFMe60OO4KoCSZTBjejDPM7F48nXnANxytPpmxqZrIez37Mp41niL3wUZdR6wl4SJ/yRDzxeY9RMhwX8paTwdItt+C2jqRMjvAE3BNviJTFfoPPCddjdJIwVASPkasf+WvJGOEVK6XHlYwuUg4GmJoxL4X/dIwB/DiI+0mE7yXXYLD6kjKaBfAhAkgCLh+JeegI3BMGuaHhBltpXiHxdAziT0jA9z2YTL6QbxUZPx6f9/pCHSOI1glcIyxe8M3osuh7v8+/NjpP9x6+NjRkMhFsSvM0gzetvskFGcIgcKOWKp6DKyB2DQ7CLWMJz+Jmp9WxTMvEZUYxXzQdW3658/hogwVcJGRyvSHfGjJYOuVdgwOzD746W/FfER6zBoEPdKmkeTMAaDf0oxmvJ4JD+zrj92ipmGRys2aPFFDhzSdMxMt8n4q/J+CmrAMVbSxsxuNBHYP9RDF+EZy7Nmz5ZQRn1iDwtbRalfYRAMAxNfgkEVPJ4XPKOiYMSjJ+An7mg0xtlZLJoCqHreUMtuBBMhzdpE5t9zkot3vJaOOVn+nR454oHC1bVVD6s2icWYNA4T2NNz+hVYTPXPSOjaApGzM9CXhTWWz3j6MFR99XS0v6ZRkycvdKNPI83Odlyloq5BVDZKz9LP/9TK3PzDYb6hsPT+a0BWUj39pw6+PRcucYBADYYncTe+h4mdKq68Jz8znLl2jalO7tHsc9VAQSgWgHjrllfPFFJRNgfDYvKOBn76DCc3hdO6ngycKgLT/VY6cxblLw9JbkFl7SJpcYZNua6z+o02gJ7+zEtJX4zF2yAqnwpr02Rc9UD+ngDrFQ+WLFU1Q85gOmEOX/Ft5QMt46c+8Gm8c+61oiw0umvH9sDE1Yw0GRKzU1zTsaNh+LpbvEIIBQICnaKskQE0/rmW49HlPC/V0scSp5eDpwP/wMFc1SefX9cqG8jQqHSViuMPdsjbz6ISqedp/9j0z0EoFAELX1hsflLKEomC3NvD2e3LgG2b5203idqvpPQODyuFHHAOkDFI8naRkOu6mDJ44UAQNkiuwGOJ5AhcMEDGTkKCRXUfHSW/RXW90W0kUtFW0s7IKhFzndYc/MyuKa5+5ZfdtYLA7k4xoEABUob3dhToET7jsMBsyMmBFDNu0Eg7vNY32FikEpq9RdGFJVyoRSAxUeHRg+AtEPMkAWFR+r27YPdKabwBAdgwaCjUqa78waQ/9AxpPUIJs2bfLXqit+DKto+ELBZ7jrYiJZPFZNx1TXY1S8IOB5lWJlOe7fm5gMLgBecBBolaK+IlGgd8dU52+tnmkVlZ7Jwk7rdQi6LGjLGlXFA9u3bycdA0gNAsJ2NNz8bI2y3AD3A8ZxZLSa4ZZ2wvFXD+imeylXvnCQpi5v2Y3F4sJtYl6Wja5QCV9sLZKob4ODQMCbih/2GjdgHX9EhZMszGixoEHTOIG+RFXWt6txy+yqPB4PSoMAQYVSvQ2cX5BadToigpvI0PjjDfrYk3bTBxBUnYgNDj19rVG9NrswS/2IRJA9CU9Zsglws/lZJo248F8aVOtyqnKqDiWiBZ1MM5NHvUF/wrZJxAvWLq26TgINPi1bnKu8MxFNUrV7+q97j54ytH0NmK2rqUWV6sJEfJOCw7m+wpAyYfcRzQyiDJ1Bzz95fO713oBHjY0rDIYCROOxWZwg9lrP4K88DOHrCR5L9BuqaMlovnA/OjqaOcwa67F6rKRehVgaqrwefxX7VGd493pded37P9i04zoqfIAltemSr5RvyzFlGy2uaS5M3Yrx9wbB4nQTUXEB6sENkbRRILQTy/17urJj6cPGGO3G4wYjxoCgkbaeHkKMTCT1q6Sq7bEy4+WTei23137DvKKo6mlggAMi0IX+vni80ioDowyikaFEh2jSYp4kEcjGOgwzNYiD2PO9vcjj8xIarCjS/i7ZDy4nZRDg+q0N2+4vkasJ5xa4jm0uYkZMCKT7B44fjNmNnXqz/i66vFKlB5kgG44npEpLhm9zOpFuOOwaw+4R673rbyN1XMbySNogQLhEWb4bpo444gOd7tbF8qKVd+OdvwH78CttxnNHo/fJaTGlIAYZbePnPwCZIJsCNWVQK/ZXwfoF2kqrLPtuKgxSMsidDZv31xZWYu8YQiMTEyiyBZmKQCpcmJUYZya+hlf05vap9idwPiX9qHhHYMCzfbLzqUksw+g2XQMymUwjk5+3yzJNVceOdZsPpsI/5QqX5xbdmsETErWIPAmpCEwGF57YEfv4A8dHTrrOG9tfpgrxTIYf4MCexoXJ9gPAc8Qx+kO6++/x5MJbAYtASNBGmhzlrfHwqMqSmvbGMnjm2CtvtvSevQnK4SM0kQONsXhM5eHVx2fHx4ScjPf4HP7+annFO4l4t4fa+XwL/+/cQd92l9dxnd3nzGfCDUIlt2PAgD0aYYM0Vqw8vHvjnVup8OPB0jLIu23vit7rPGOecJj5EDR881UbZr/rEU8I02VcFieE46Rc+CMAkxzEcuH1BzHZCKJAJnbz5OMdzyyXfyYTRzCmVb909IXZ55vNxxFMd+GnLDaW1eZEAhdS4Ze2wvjnjPYc7Tz5KAiDT0isrV6SitwvHe4nne3455HCIWbXLrnqkV2NW3+eTiVTHkMiQnat37qnPK9oAvKgSHTQVwTnq3K12G14dTtCVLdCUWxM1xjAIG2DAHG1ovxe+E0mmKnAdu9XNUV8fPCl6wpFyb102oGWQe5ouL6pTlVJnJswWszYq2mko8sXkjbaC75co229e+2NCSccVBWlZRBgrMlXbBUJ8PiJE8wwiF9lg8xXIEXvE4nxtqxGnhd3WzaVpqBtkNtW3jhQX6x9FYQ6ZmZQ58WdsVSU+KLiRu+kriiq2QttQbcutA0CClQGCnaqpAoX3Lcb+hBE5n3ZU3SsgRJHfErl6NtM1JkRg8B279LCyodgQwgi8iAy78ueoqNxatWVD2+v3R527dKsOCMGAR2+2XDzM1UFJcREHOKPJm2kx9Jpqrzw5NHxatXK8sGdV215iimtGDMIKFQkU94BUY8Qx9TahV0IzPrtmKozLT7EFF/fSdQRztSU52vupsUwhphRg9zTuKUZD24nQAa8IZ3DtMe4GHUXPguTlqlpG6FIXZH24zvW3EDUlynNGDUIKFUoK9ycnyUjRvUzej0aM88eX2RK5wXjA2utyKkA/M1Ir6IgfwvTyjBuENiqXFlUex8EE4N39cO2s4zvmzDdCMnwG8b7P8fO4t/BxV4J6KpWFS/9LmxtJ0ObCk7azsVEQp7/+LUnP9K3/giMAh8AqykqQfC158hXcBLRXylwmDW29fWgriEDMSbCVsBG7eon7t1wO2VMcLr6z5tBQKH//vDgnpa+M4/gM4uEHAGPj7Saiz9wz/BJ33QbgIxuGv/AfT8ODuzBoTzgWock4PJCf1O15uc7G7cQXm4yWjrl82oQUOzlE0eu6zB2Hxw2j0uiFYXvosOPn8B+Cjgor4QUwCGzHp8f2ZwOfPXNUQnPIO3L1NXb7lh3/btzAAxn5t0goC/8LGk/1/yrbpNhd+SbXAzXY97Y4YBzR6Wi5A8D6889DMf+5k3QRcaXxSDRlTjw6dtftzjt37HOOOpmPDO5br9XGA1f6Hshl+8WCTImszJEZ7Mzpc/etfb6owut06L8xRZYbIHFFlhsgcUWWGyBxRZYbAG6LfD/gg78/JqoLtQAAAAASUVORK5CYII=;" parent="1" vertex="1">
          <mxGeometry x="760" y="400" width="90" height="90" as="geometry" />
        </mxCell>
        <mxCell id="W51DfU3OVTZ-6x-1tD1t-6" value="Database" style="text;html=1;align=center;verticalAlign=middle;whiteSpace=wrap;rounded=0;" parent="1" vertex="1">
          <mxGeometry x="915" y="180" width="150" height="20" as="geometry" />
        </mxCell>
        <mxCell id="W51DfU3OVTZ-6x-1tD1t-8" value="" style="shape=image;verticalLabelPosition=bottom;labelBackgroundColor=default;verticalAlign=top;aspect=fixed;imageAspect=0;image=data:image/png,iVBORw0KGgoAAAANSUhEUgAAAGQAAABkCAYAAABw4pVUAAAAAXNSR0IArs4c6QAAAERlWElmTU0AKgAAAAgAAYdpAAQAAAABAAAAGgAAAAAAA6ABAAMAAAABAAEAAKACAAQAAAABAAAAZKADAAQAAAABAAAAZAAAAAAvu95BAAALiElEQVR4Ae1daXAUxxV+Pbu6OHRYYERwECEOvrgcytiAiHWuBIZUqmyRcoJBArtcMbYsYY5YEggJcRkMAkNsXGAhEpKUIZXEsZEEK2m5SbDDYTvYnOIUN0gghKTd6bzeYlyytaymd2dmZ5adP7Pb87r7ve+bmdevrwEIHAEEAggEEAggEEAggIBfIECMbkV86egYk+CYx+xwiKY8W+bmC0a2ybCEpH+cHnytqeF3VKRFhJBwRgKl0CgAWWKHOwttmbY7RiTGkIQkllrGAhFKCNC+rkAXAc6YAPKtEyv/CCjkSkavaYYiJHl98mPUYVqGIKfKAVQE0WamkLM1c+sBOfJ6kDEEIUllSdFATbPxlTQFX09488s/KFBRIHSDXQyaYQT/omtChqweEhQZ2u01JKIQFY2QT0N7SaP4F90SklyWmkypuBxAeLw9vJ6noMHHREpyqzMrNnpeino5dUeIpdTyqIOSpSDAKPXMxpJFqBHRv9RMrjyoaj2cheuGkNQ1qQ/YzbQAgLyGNpg57fBIXPIvtEWcXvVK1UWPClE4k88JYX4iKiQ6kwJhwV03he2TW9wNSmBhSL1QUp5V3iw3kxpyPiXE6SdEWgKEPKGGcbxlYsByFCjJ86V/8QkhCWvTHhFMjnfRYT/HC5oW8khMFTavp1ZNrDikRX1t69CUEF/4ibbG8vyW/ItAyLQtE7Zc4snrjawmhMTXxJvNp4InYZdGMQHS3RuFtc5LKL2OkeWi6LDwZRvHbWxRu37VCWF+ApuXy7Ci/mobo2b5GFgewRZgvtr+RTVCkspG96PU8S5WMEZNoLQuWwRqDRIgB19jX6lRt+KExG14Liq0xT4TFc9BxxishtI6KNOOT8tHwSLJL59UfllJfRQj5Ds/QclcQuBBJZXUa1lq+BdFCElZl5bkABH9BBmgV/BU1YvQbwklb1kzKj/zth6vCEkpTfkZFYR56PDSvVXEH/Iz/4KvsuyajMqvPbXHI0LiS+MjzRDye5HQbHwqQjyt3E/ztSIppY7goDzbb/51hddGLkLmzJkj7OyzZzw2YxffL36CF1BJHqP9a4hRkaN38ypbgg0bAfIO2YQklaUNw/GJ1Ur4iZguMZD+xPMwOGYQRIVFgl20w7mG83D82nGoOlkDhy9/I097BaTMghnSHrZAYt8E6Nm1JzS2NMKBCwdh49eb4OIt7wN0jPi/JER4Fbth9shRVz4h61JXYoFT5BTqTmZor6dgVnwuhJnD7im28/RuWLZnOdTfqb+njBIXOgV1gvnJc6H/g+37NpvsTVBYUwyfn/9CiapWVWVUvi6nIEGOkFIy7MnoiAxWV1zv4bB81FLo3lndXpa3hue4JIPpwG6YgoR86NFF2xa8poSw15S7J4MBIR0PhfeCBcnF0DW4i5Sk6Dk2sjc822ek2zKZrumPP+9WRumLmhLCfAbP0ScyFooS50CwSfmAX64ug3sO5lHZa1lNCYkIdU4w5FJ6QI/+kDtyJghEWVUjQuRNYokMlSfHZZQbYWWtdFMRu4QttA4kXF+Oix0BWc/I8omuC3CVKlMVT3V2VaWcNE0JkaPQvWTG9BsNLw749b0u+026YQhhiE/6eYYzZvAb9F0YYihC2Osje1gWsFjGXw9DEcJIYJF1QXw+PNb9Ub/kxHCEMBZCzCFQnFQELFbxt8OQhDASIkLCnYFjVFiUX3FiWEIYC6wzcF5Soezo3wjMGZoQBnC/6H4YzRc4fYsRAO9IR8MTwgx8Ers3po+Y6nHg2RFIWl73C0IYYEl9EyHjyQlaYqdKXbokZFvtdrjZfJPb4N8OfBF++cgY7nx6yqBLQk7Vn4Zc6yxotvOvDHjj6SkwMjZOTxhz6aJLQpgFh698A8XbF4CDOrgMwsl58PbIGcB6iY146JYQBuaeM3thxd5V3Liy8ZPixELoG/UT7ry+zqBrQhg4nx3ZDBsO/YUbp87BnXG8vFj1YWBuxTrIoHtCmP7r9q+HiqOVHZjS/nK3TtGqDgO3r9H7FEMQglNpYCnOQtl9RtZMmu+hwoaBCzFwVGMY+HsVKfTHEIQwW0UqwrztC+F/lw9zmz6wxwCYGTcNlzLKHCbkrkG5DIYhhJnMmsGzqgrgbMM5bgSe7fMLyMImsd4PQxHCwKxvboC3rflwvek6N7ZjMWgc1/8F7nxaZjAcIQycupt1kFc1G9jsQt7jlSGTwfLTFN5smskbkhCGzpGrR2Gubb5zXjAPWmwYeOrwN2FQj4E82TSTNSwhDKH/nNsHi3ctxTYYzjXnONgw8KCYACEckMkXrTpR7YxT5OfQt6ShnxAJWhbJ//3wP6W/hj77BSGMgT/s+wB2nNppaDKY8n5DCMWFjgt3vANfXfJ4eZ8uyPQbQhiazY4WZ3P4xPWTugDXEyX8ihAGAFuSlouB4+VGRdfze4KtR3n8jhCGwpXbVzGanwU3W255BIovM/klIQzQ2hu1UFBdCK0OXKVsoMNvCWEcHLr4JSzauQS3IOcLHH3Jn18TwoC11W6D9/7NPwzsK1I0JURuF4fSd/Qn336K687/5hHGcnX2qHAXmTQlpP5OgwsV2ifdUGF9+odfrIHqk7b2lXWQcuPOjQ4klL2sKSH7L3S8Jz67Iw/IkOOFgT1176A/2V/XsQ5ty95fd7DtX9V/a0rIJnxt3G51P4ZRc8IGZ+rPqmI428KjoKbIuYWHnAqYrp6+6uSU70pGU0Iu3LoIRbbiew4ssVZRyd4VrvRULO12623IqZgGW45vddttz8gotM2FS43e73fCo7zsTz/0/dXDo7HgoTyFu5I9j6N91bjBjAnXnYcGhUIr3rVHcbDpz4f+Cu/v+xBasPtD7YPVuev0HqhBn3IdfYRJYDAQnEjhgLpbdZi+zdkvduzaMaVU2XfyH8c3yylM9jSMhLWpg8AEK/GRMu7EWTmIKCyDW+PuBAe8LnfTf9mESHqyzw3hPu3LBQLGm6cpGaHJmZ7F4eI83s8ucRPCbBn2cXpYWFNDFm4CmYePeldN7DNIJdhKvC1Q8p69c3OxbZyNuzPNI0IkbFLWpvxINJkKKIgv492gaQNB0kE3Z2QCEdgktpqmV7+8+ZSnenlFiFRpwjrLEHxSSu5X/4I35D4QSXb1pC27JUw8PStCiFQ58y84WxPbraSPlObXZ0rP4fTUXF4/4Q4TRQlhFd0P/sVbP6EpIVJliWVjehFqn+1X/uWun7CLBD/BV1Er2arkWfEn5IfKJZWmPYWfE8Jdr+mIH14z1n/yOTrtHOuEClWntqhOiBN0DFwS16W9QATHYqBCrJGIwKGt8wLQwrja4Wtw32KM89Q9tCHkrg1jV4/t1Bja8gahkI9J6uxuqRRelDZhU35Fkxgyb9fkT/jXaHuoh6aESDoy/yJA8wL8KOp4PW6/gE/Fp2aBZuE3Qk5KOmt19gkhknGJZalDcd1zCRHIMCnNt2f6XwzvsqsyK3f4Sg+fEuI0+q5/wa+hL8EYprdPgKC0DuueE9UpYi1+Z4pvYbzCCvuekLsGMf/SFNw6gxI6E5NCFbbTZXE4itiCRHwQbDbNKh9fLm982WVJyiXqhhDJpPg/jXrI7LDPV9u/MD8hiI43rZOsJ6S69XDWHSESKAnrLU8LIpRgN8wzUpoSZ1zMux8Eml2dsWW7EuUpXYZuCXEaiv4FP7v3EgbIi5CYGG+MxzkOVzGwm/tAWPhKX/sJd3bom5C7mlvWWzqLDmG6h/4F55LS90mzONv6qrXeHRh6uGYIQiSgLB9ZfiyaKH7zSnhJSnN3Zn4Cl8Dg66n8uDs5PV0zFCEScMmlafH4tCzD/4OltLZn9BOHsfU0FeOJirbpRvhtyFE+a2aFbWTtsCF4N01EkL/7MD3zExj5Z0d3CR9gRDLYDWPIJ6TtnZ68OjkCd1ZmfWNs741iI/iJtvoHfgcQCCAQQCCAQAABpRD4P3SElEC0UJ02AAAAAElFTkSuQmCC;" parent="1" vertex="1">
          <mxGeometry x="517.5" y="285" width="100" height="100" as="geometry" />
        </mxCell>
        <mxCell id="W51DfU3OVTZ-6x-1tD1t-11" value="" style="endArrow=classic;html=1;rounded=0;strokeWidth=4;entryX=0;entryY=0.5;entryDx=0;entryDy=0;" parent="1" target="W51DfU3OVTZ-6x-1tD1t-2" edge="1">
          <mxGeometry width="50" height="50" relative="1" as="geometry">
            <mxPoint x="610" y="335" as="sourcePoint" />
            <mxPoint x="690" y="285" as="targetPoint" />
          </mxGeometry>
        </mxCell>
        <mxCell id="W51DfU3OVTZ-6x-1tD1t-12" value="" style="endArrow=classic;html=1;rounded=0;strokeWidth=4;entryX=0;entryY=0.5;entryDx=0;entryDy=0;" parent="1" edge="1">
          <mxGeometry width="50" height="50" relative="1" as="geometry">
            <mxPoint x="609" y="334.58" as="sourcePoint" />
            <mxPoint x="759" y="334.58" as="targetPoint" />
          </mxGeometry>
        </mxCell>
        <mxCell id="W51DfU3OVTZ-6x-1tD1t-14" value="" style="endArrow=classic;html=1;rounded=0;strokeWidth=4;entryX=0;entryY=0.5;entryDx=0;entryDy=0;" parent="1" target="W51DfU3OVTZ-6x-1tD1t-4" edge="1">
          <mxGeometry width="50" height="50" relative="1" as="geometry">
            <mxPoint x="610" y="335" as="sourcePoint" />
            <mxPoint x="760" y="420" as="targetPoint" />
          </mxGeometry>
        </mxCell>
        <mxCell id="W51DfU3OVTZ-6x-1tD1t-15" value="" style="shape=image;verticalLabelPosition=bottom;labelBackgroundColor=default;verticalAlign=top;aspect=fixed;imageAspect=0;image=data:image/png,iVBORw0KGgoAAAANSUhEUgAAAGQAAABkCAYAAABw4pVUAAAAAXNSR0IArs4c6QAAAERlWElmTU0AKgAAAAgAAYdpAAQAAAABAAAAGgAAAAAAA6ABAAMAAAABAAEAAKACAAQAAAABAAAAZKADAAQAAAABAAAAZAAAAAAvu95BAAAKCklEQVR4Ae1ca2xcRxWembt2nBTSNLvrvKv40aQQoaqNEKCqD6mgtlCp5U+EVEBEVBg/apI2PAQtOD8qQRCQOrVD2tAI8aMiqCiUAgJE+pAKlSCJWhqSOLtblzqFeHfdGMexd707h28crx+7d/fOXu+17yZz/9w7M2fmnPt9d97nDmPmMggYBAwCBgGDgEHAIGAQMAgYBAwCBgGDgEHAPwhw/5hSniUbewZXC2a1cGJrbXNyikuynnm747p3bNN9GlmdhBwmq2kweZJxtrkUrkR0brxmYtN7LWsvlZLzU5rwkzG6tjQOxRudyFBlcc7XLZtYcpNuuX6Qq0pCRMaq1QaP5BJtWR8IViUhPsDNMxMMIZ5B665gQ4g73DzLZQjxDFp3BVclIZyT1H3dcmR1y/RSrioJGUuN9TNGFzSAGSOZPaUh5xuR6pwYAr7m3vgdRPxxRmyFLZrELhKXe2Id9b+3TTeRBgEdBDyrIVsOU+1IYvgaOyNqM/FLkc4bUvlpzd3J5emAZeXHixRR/87rCpooNzryy/Zb2BNCmnrijxLjT6Bw21kyMcpgWeP70bbQ4wqQTfsT6yTR79AElVrm6CNL3hf7av1ZladcHSpPNVwV79TXHxxeiXb9B8XIUKBwxgOQeaypZ7BZhUHGLgcylNgmlhXfVQ9udKh81XBVnJC68cwarOoVNDt2YHDJ16t4kLHOLj0/jjiblHejI78sv4YrTohfX7Ra7DKE+IypgM/sqQpz1OhuPJFsGbPSP6v05pepIS4+gVQ8uRuDku66iZrTzfuSd7soomgWQ0hRaOwTmn+a/DBGhY+qVAzdN2A14A+NvcnJ0Z99jvJiK0+IZMPaJgRoUhbzkv9p5aGpsl3o0CpfRyib3QsiaqZFEeBEuxufiv9oOm4eDxUnJNIZHIAnyPOONhE7GjkffkPJCS4OEmOjpfIgPWVJvl/JuNFRqmzdtMbe+GeIiU/ZyYOWR5p7kjvt0sqJ82SmzrpINNcnbgPU9XbGSElD1yeCr7zcxTO59M374msxff8YF5g05l1oIrJE1rE5Lj0udOQVW3awoTfxkiB2Z7GMagUCH9dtkbbg68VknOK9IcRJaxWmNx4Yup5PZPtVx+Fg/j9XBIJbj7XwCQc52+SCr9FOqqk38QAjeRejQm8P+D5lmEWvxVpDz8FYtCyMuXFi86OO2VjwTPZuDTJUlo8MTyQ/h/svZufXfXZiG/sOic8TOReOxcQdsfbgk8yFE5svdeQh2NST2Iuor+VF2wbxVR6PtYe22iY6RDp36sTucSjjcrLMflo9uHJi86GOwnfmNxTG2cfgK79l477EjfappWMdCQHbWk5pZIlJOTdObH7UUQgbbSiMKx5jWXR78dTiKVp9SPHsV08K5hpj5Nifz+BBJB5s7Emu4ZRtwH7DckwjP6hS0bRfQA16jzidYpIdjXWE+2ZyMWYImY1GiWcAebFEckESZ5M15HbG5zZCuU6bYy8BRLGmpxL9uD2TmbB61a7oXOmCYk3EDALy3ZnnCj5xthHcPGHVZM809STvMYToYsvFUV1RV3KcYRJN3RqEYNCrcXGJ5hFXOY5pM7L+05H/ypZgf8HWphYW+Xl1w+iiDjkSgrbzhE6BmMAeV3JunNj8qCP/nftaQ+dg54v58RULS/afZaOZbsdOXS4b2RsY+8AqkvxWKLcnkLO/B+rkbmXcwCMbxuDE9gC+JUcntmjnmrjK40cdyq78S1jye5Tl92nO2POzlwxjBPfYm19fPYoO3lw6CNzZRYGBcOJeSexZtAYhnTy6Mmiq9kfaQm1Kfk4N2fiT91fIJWUMtnU1VpGcrOW8djwd4mSFOZchKdiNmIPc8i5L3oEeclWl0UGndGTDYLAzMoXRZA2B09ku9MnfEkwEqwi7K8HUPdFw8NtsG8/mXoZj0exLCBzKRZi79wigVhzHxHFXtD38Ur42NFn04OSUMT/FhCuLgNpkY/xVEPF0LBE6zLowUbC5lEtnvZrCm6syCEjiMcFlTDKuRkwj2CE6g5JPpupqXxl46NohJy0BDOHSTkImXR8BQfyL0Y7wa/o55koKxqngt4C5IiakiwDaoBPRh1e6JkPpEZjwmRqii7iDnODsSQcRx+SAauccpYyAIwIYOcXl0pFfOgo6CMBrhZ1zkDHJGgjgn5d9/dsbxjVES4oI7FoNlJQwiRoI0IVsWuzTEHQUUYuF3my8OKq+cgSw+/dDu38g3bwhVkvo324ymjyXEcAWScJaShWpHapEkUkF3vB64+VKJg+Doj1nvhyu2MBITFY1znOLjVcydl68W1/2mosVqx3KwKkNJ/4PL6y9ostU27mCtVZiZDUbpylC5LHZkebZGQFsUh2KtoYq7vhwmRBh/dHZBCORQ0AymRSB2m/mwpW8TxISbV35Fmaaph/RRBbH07b3tSxPaIqXJTbVZKkdEX6krJxXqzDxp6PtwXkvkRSDb5oQbJ78ppiQiZ9CgOjNVPrSDi/xmNmawvkWcGU8hapS8nBiL43xc9lqAiik/Hikc1XUSzuna4hyOYSiXi+VVW3ZxMY5F/d7TYbCZ4YQBOq4fBZbuoNVC5wHhqNmpPGtbkO/8VcPii8ocg4hJ9vrL5JgPy6Quloj4JiAxb4vRNrDv10oCOYQopSmx8e6UUv6F8oA3+pBMwX3zm2RjuDhhbSxgBDlm8sFaf3cuJCGLqQuNfFjJD6JHzd/vZB6la4CQlRkpC38An6D/rl6vgqvsxjg3DpfZwW3uNkSogoLLOUPY0x82m3B1ZmPPxeoo61vt4WVL9WiXDPzEBv16kxETE/+VmlvbxtVixqF8f4o/Kl2oL84uKiGQHnRGqIMi7bXR9DB34sNrPcX21Cv9MOb/UWco7LFD2SodyxZQ3IgNO8fvJmkUH8Prc3FVf0dI0kcdPMNHBTzKz+9S8kakjM00lp/IiDpo/BynJdXXq68xb3TO3Aw/8qKmuAmv5GhcNGqIdMAqnNM4omdWIjsQkbbU6unZX32gBn3v9A8ddeFQ4dObvOvt2Z5hEyB3LD3/CoWsL4D18mHELXUZ9hPm4POOoXzrZ7nTB4421H/6nSCjx9cEZJ7H3XC9JJUejtefDv2U7bk4hf5PoaByJ9J8CO1suaF0x3Lk4tsT1nq50XIbE0NvfHNcBj7LH5IuQtN2icWqklDUzSBhhd/JPHXcX8ZR7f+qdJHt85+T6+fK0bIbEO3HqCaIZm8WUi6SZ3pDiUfwmErDfhy12NOUzNbVvcZPh4jQlAM/yFFmWVFickYDlR7K50aPaaWe3TL8bucJ4QUfWkMCpr/O7QmyzJBYYmVHD+ZEskAZkPLc3m4FBeYkOP4A+kSCBxmUozzQPp8tHW12RbIgWTuBgGDgEHAIGAQMAgYBAwCBgGDgEHAIGAQMAgYBAwCBgGDgEHAIOBzBP4PeUfY5s5qVmAAAAAASUVORK5CYII=;" parent="1" vertex="1">
          <mxGeometry x="820" y="180" width="40" height="40" as="geometry" />
        </mxCell>
        <mxCell id="W51DfU3OVTZ-6x-1tD1t-17" value="" style="shape=image;verticalLabelPosition=bottom;labelBackgroundColor=default;verticalAlign=top;aspect=fixed;imageAspect=0;image=data:image/png,iVBORw0KGgoAAAANSUhEUgAAAGQAAABkCAYAAABw4pVUAAAAAXNSR0IArs4c6QAAAERlWElmTU0AKgAAAAgAAYdpAAQAAAABAAAAGgAAAAAAA6ABAAMAAAABAAEAAKACAAQAAAABAAAAZKADAAQAAAABAAAAZAAAAAAvu95BAAAKCklEQVR4Ae1ca2xcRxWembt2nBTSNLvrvKv40aQQoaqNEKCqD6mgtlCp5U+EVEBEVBg/apI2PAQtOD8qQRCQOrVD2tAI8aMiqCiUAgJE+pAKlSCJWhqSOLtblzqFeHfdGMexd707h28crx+7d/fOXu+17yZz/9w7M2fmnPt9d97nDmPmMggYBAwCBgGDgEHAIGAQMAgYBAwCBgGDgEHAPwhw/5hSniUbewZXC2a1cGJrbXNyikuynnm747p3bNN9GlmdhBwmq2kweZJxtrkUrkR0brxmYtN7LWsvlZLzU5rwkzG6tjQOxRudyFBlcc7XLZtYcpNuuX6Qq0pCRMaq1QaP5BJtWR8IViUhPsDNMxMMIZ5B665gQ4g73DzLZQjxDFp3BVclIZyT1H3dcmR1y/RSrioJGUuN9TNGFzSAGSOZPaUh5xuR6pwYAr7m3vgdRPxxRmyFLZrELhKXe2Id9b+3TTeRBgEdBDyrIVsOU+1IYvgaOyNqM/FLkc4bUvlpzd3J5emAZeXHixRR/87rCpooNzryy/Zb2BNCmnrijxLjT6Bw21kyMcpgWeP70bbQ4wqQTfsT6yTR79AElVrm6CNL3hf7av1ZladcHSpPNVwV79TXHxxeiXb9B8XIUKBwxgOQeaypZ7BZhUHGLgcylNgmlhXfVQ9udKh81XBVnJC68cwarOoVNDt2YHDJ16t4kLHOLj0/jjiblHejI78sv4YrTohfX7Ra7DKE+IypgM/sqQpz1OhuPJFsGbPSP6v05pepIS4+gVQ8uRuDku66iZrTzfuSd7soomgWQ0hRaOwTmn+a/DBGhY+qVAzdN2A14A+NvcnJ0Z99jvJiK0+IZMPaJgRoUhbzkv9p5aGpsl3o0CpfRyib3QsiaqZFEeBEuxufiv9oOm4eDxUnJNIZHIAnyPOONhE7GjkffkPJCS4OEmOjpfIgPWVJvl/JuNFRqmzdtMbe+GeIiU/ZyYOWR5p7kjvt0sqJ82SmzrpINNcnbgPU9XbGSElD1yeCr7zcxTO59M374msxff8YF5g05l1oIrJE1rE5Lj0udOQVW3awoTfxkiB2Z7GMagUCH9dtkbbg68VknOK9IcRJaxWmNx4Yup5PZPtVx+Fg/j9XBIJbj7XwCQc52+SCr9FOqqk38QAjeRejQm8P+D5lmEWvxVpDz8FYtCyMuXFi86OO2VjwTPZuDTJUlo8MTyQ/h/svZufXfXZiG/sOic8TOReOxcQdsfbgk8yFE5svdeQh2NST2Iuor+VF2wbxVR6PtYe22iY6RDp36sTucSjjcrLMflo9uHJi86GOwnfmNxTG2cfgK79l477EjfappWMdCQHbWk5pZIlJOTdObH7UUQgbbSiMKx5jWXR78dTiKVp9SPHsV08K5hpj5Nifz+BBJB5s7Emu4ZRtwH7DckwjP6hS0bRfQA16jzidYpIdjXWE+2ZyMWYImY1GiWcAebFEckESZ5M15HbG5zZCuU6bYy8BRLGmpxL9uD2TmbB61a7oXOmCYk3EDALy3ZnnCj5xthHcPGHVZM809STvMYToYsvFUV1RV3KcYRJN3RqEYNCrcXGJ5hFXOY5pM7L+05H/ypZgf8HWphYW+Xl1w+iiDjkSgrbzhE6BmMAeV3JunNj8qCP/nftaQ+dg54v58RULS/afZaOZbsdOXS4b2RsY+8AqkvxWKLcnkLO/B+rkbmXcwCMbxuDE9gC+JUcntmjnmrjK40cdyq78S1jye5Tl92nO2POzlwxjBPfYm19fPYoO3lw6CNzZRYGBcOJeSexZtAYhnTy6Mmiq9kfaQm1Kfk4N2fiT91fIJWUMtnU1VpGcrOW8djwd4mSFOZchKdiNmIPc8i5L3oEeclWl0UGndGTDYLAzMoXRZA2B09ku9MnfEkwEqwi7K8HUPdFw8NtsG8/mXoZj0exLCBzKRZi79wigVhzHxHFXtD38Ur42NFn04OSUMT/FhCuLgNpkY/xVEPF0LBE6zLowUbC5lEtnvZrCm6syCEjiMcFlTDKuRkwj2CE6g5JPpupqXxl46NohJy0BDOHSTkImXR8BQfyL0Y7wa/o55koKxqngt4C5IiakiwDaoBPRh1e6JkPpEZjwmRqii7iDnODsSQcRx+SAauccpYyAIwIYOcXl0pFfOgo6CMBrhZ1zkDHJGgjgn5d9/dsbxjVES4oI7FoNlJQwiRoI0IVsWuzTEHQUUYuF3my8OKq+cgSw+/dDu38g3bwhVkvo324ymjyXEcAWScJaShWpHapEkUkF3vB64+VKJg+Doj1nvhyu2MBITFY1znOLjVcydl68W1/2mosVqx3KwKkNJ/4PL6y9ostU27mCtVZiZDUbpylC5LHZkebZGQFsUh2KtoYq7vhwmRBh/dHZBCORQ0AymRSB2m/mwpW8TxISbV35Fmaaph/RRBbH07b3tSxPaIqXJTbVZKkdEX6krJxXqzDxp6PtwXkvkRSDb5oQbJ78ppiQiZ9CgOjNVPrSDi/xmNmawvkWcGU8hapS8nBiL43xc9lqAiik/Hikc1XUSzuna4hyOYSiXi+VVW3ZxMY5F/d7TYbCZ4YQBOq4fBZbuoNVC5wHhqNmpPGtbkO/8VcPii8ocg4hJ9vrL5JgPy6Quloj4JiAxb4vRNrDv10oCOYQopSmx8e6UUv6F8oA3+pBMwX3zm2RjuDhhbSxgBDlm8sFaf3cuJCGLqQuNfFjJD6JHzd/vZB6la4CQlRkpC38An6D/rl6vgqvsxjg3DpfZwW3uNkSogoLLOUPY0x82m3B1ZmPPxeoo61vt4WVL9WiXDPzEBv16kxETE/+VmlvbxtVixqF8f4o/Kl2oL84uKiGQHnRGqIMi7bXR9DB34sNrPcX21Cv9MOb/UWco7LFD2SodyxZQ3IgNO8fvJmkUH8Prc3FVf0dI0kcdPMNHBTzKz+9S8kakjM00lp/IiDpo/BynJdXXq68xb3TO3Aw/8qKmuAmv5GhcNGqIdMAqnNM4omdWIjsQkbbU6unZX32gBn3v9A8ddeFQ4dObvOvt2Z5hEyB3LD3/CoWsL4D18mHELXUZ9hPm4POOoXzrZ7nTB4421H/6nSCjx9cEZJ7H3XC9JJUejtefDv2U7bk4hf5PoaByJ9J8CO1suaF0x3Lk4tsT1nq50XIbE0NvfHNcBj7LH5IuQtN2icWqklDUzSBhhd/JPHXcX8ZR7f+qdJHt85+T6+fK0bIbEO3HqCaIZm8WUi6SZ3pDiUfwmErDfhy12NOUzNbVvcZPh4jQlAM/yFFmWVFickYDlR7K50aPaaWe3TL8bucJ4QUfWkMCpr/O7QmyzJBYYmVHD+ZEskAZkPLc3m4FBeYkOP4A+kSCBxmUozzQPp8tHW12RbIgWTuBgGDgEHAIGAQMAgYBAwCBgGDgEHAIGAQMAgYBAwCBgGDgEHAIOBzBP4PeUfY5s5qVmAAAAAASUVORK5CYII=;" parent="1" vertex="1">
          <mxGeometry x="580" y="285" width="40" height="40" as="geometry" />
        </mxCell>
        <mxCell id="W51DfU3OVTZ-6x-1tD1t-18" value="" style="shape=image;verticalLabelPosition=bottom;labelBackgroundColor=default;verticalAlign=top;aspect=fixed;imageAspect=0;image=data:image/png,iVBORw0KGgoAAAANSUhEUgAAAGQAAABkCAYAAABw4pVUAAAAAXNSR0IArs4c6QAAAERlWElmTU0AKgAAAAgAAYdpAAQAAAABAAAAGgAAAAAAA6ABAAMAAAABAAEAAKACAAQAAAABAAAAZKADAAQAAAABAAAAZAAAAAAvu95BAAAKCklEQVR4Ae1ca2xcRxWembt2nBTSNLvrvKv40aQQoaqNEKCqD6mgtlCp5U+EVEBEVBg/apI2PAQtOD8qQRCQOrVD2tAI8aMiqCiUAgJE+pAKlSCJWhqSOLtblzqFeHfdGMexd707h28crx+7d/fOXu+17yZz/9w7M2fmnPt9d97nDmPmMggYBAwCBgGDgEHAIGAQMAgYBAwCBgGDgEHAPwhw/5hSniUbewZXC2a1cGJrbXNyikuynnm747p3bNN9GlmdhBwmq2kweZJxtrkUrkR0brxmYtN7LWsvlZLzU5rwkzG6tjQOxRudyFBlcc7XLZtYcpNuuX6Qq0pCRMaq1QaP5BJtWR8IViUhPsDNMxMMIZ5B665gQ4g73DzLZQjxDFp3BVclIZyT1H3dcmR1y/RSrioJGUuN9TNGFzSAGSOZPaUh5xuR6pwYAr7m3vgdRPxxRmyFLZrELhKXe2Id9b+3TTeRBgEdBDyrIVsOU+1IYvgaOyNqM/FLkc4bUvlpzd3J5emAZeXHixRR/87rCpooNzryy/Zb2BNCmnrijxLjT6Bw21kyMcpgWeP70bbQ4wqQTfsT6yTR79AElVrm6CNL3hf7av1ZladcHSpPNVwV79TXHxxeiXb9B8XIUKBwxgOQeaypZ7BZhUHGLgcylNgmlhXfVQ9udKh81XBVnJC68cwarOoVNDt2YHDJ16t4kLHOLj0/jjiblHejI78sv4YrTohfX7Ra7DKE+IypgM/sqQpz1OhuPJFsGbPSP6v05pepIS4+gVQ8uRuDku66iZrTzfuSd7soomgWQ0hRaOwTmn+a/DBGhY+qVAzdN2A14A+NvcnJ0Z99jvJiK0+IZMPaJgRoUhbzkv9p5aGpsl3o0CpfRyib3QsiaqZFEeBEuxufiv9oOm4eDxUnJNIZHIAnyPOONhE7GjkffkPJCS4OEmOjpfIgPWVJvl/JuNFRqmzdtMbe+GeIiU/ZyYOWR5p7kjvt0sqJ82SmzrpINNcnbgPU9XbGSElD1yeCr7zcxTO59M374msxff8YF5g05l1oIrJE1rE5Lj0udOQVW3awoTfxkiB2Z7GMagUCH9dtkbbg68VknOK9IcRJaxWmNx4Yup5PZPtVx+Fg/j9XBIJbj7XwCQc52+SCr9FOqqk38QAjeRejQm8P+D5lmEWvxVpDz8FYtCyMuXFi86OO2VjwTPZuDTJUlo8MTyQ/h/svZufXfXZiG/sOic8TOReOxcQdsfbgk8yFE5svdeQh2NST2Iuor+VF2wbxVR6PtYe22iY6RDp36sTucSjjcrLMflo9uHJi86GOwnfmNxTG2cfgK79l477EjfappWMdCQHbWk5pZIlJOTdObH7UUQgbbSiMKx5jWXR78dTiKVp9SPHsV08K5hpj5Nifz+BBJB5s7Emu4ZRtwH7DckwjP6hS0bRfQA16jzidYpIdjXWE+2ZyMWYImY1GiWcAebFEckESZ5M15HbG5zZCuU6bYy8BRLGmpxL9uD2TmbB61a7oXOmCYk3EDALy3ZnnCj5xthHcPGHVZM809STvMYToYsvFUV1RV3KcYRJN3RqEYNCrcXGJ5hFXOY5pM7L+05H/ypZgf8HWphYW+Xl1w+iiDjkSgrbzhE6BmMAeV3JunNj8qCP/nftaQ+dg54v58RULS/afZaOZbsdOXS4b2RsY+8AqkvxWKLcnkLO/B+rkbmXcwCMbxuDE9gC+JUcntmjnmrjK40cdyq78S1jye5Tl92nO2POzlwxjBPfYm19fPYoO3lw6CNzZRYGBcOJeSexZtAYhnTy6Mmiq9kfaQm1Kfk4N2fiT91fIJWUMtnU1VpGcrOW8djwd4mSFOZchKdiNmIPc8i5L3oEeclWl0UGndGTDYLAzMoXRZA2B09ku9MnfEkwEqwi7K8HUPdFw8NtsG8/mXoZj0exLCBzKRZi79wigVhzHxHFXtD38Ur42NFn04OSUMT/FhCuLgNpkY/xVEPF0LBE6zLowUbC5lEtnvZrCm6syCEjiMcFlTDKuRkwj2CE6g5JPpupqXxl46NohJy0BDOHSTkImXR8BQfyL0Y7wa/o55koKxqngt4C5IiakiwDaoBPRh1e6JkPpEZjwmRqii7iDnODsSQcRx+SAauccpYyAIwIYOcXl0pFfOgo6CMBrhZ1zkDHJGgjgn5d9/dsbxjVES4oI7FoNlJQwiRoI0IVsWuzTEHQUUYuF3my8OKq+cgSw+/dDu38g3bwhVkvo324ymjyXEcAWScJaShWpHapEkUkF3vB64+VKJg+Doj1nvhyu2MBITFY1znOLjVcydl68W1/2mosVqx3KwKkNJ/4PL6y9ostU27mCtVZiZDUbpylC5LHZkebZGQFsUh2KtoYq7vhwmRBh/dHZBCORQ0AymRSB2m/mwpW8TxISbV35Fmaaph/RRBbH07b3tSxPaIqXJTbVZKkdEX6krJxXqzDxp6PtwXkvkRSDb5oQbJ78ppiQiZ9CgOjNVPrSDi/xmNmawvkWcGU8hapS8nBiL43xc9lqAiik/Hikc1XUSzuna4hyOYSiXi+VVW3ZxMY5F/d7TYbCZ4YQBOq4fBZbuoNVC5wHhqNmpPGtbkO/8VcPii8ocg4hJ9vrL5JgPy6Quloj4JiAxb4vRNrDv10oCOYQopSmx8e6UUv6F8oA3+pBMwX3zm2RjuDhhbSxgBDlm8sFaf3cuJCGLqQuNfFjJD6JHzd/vZB6la4CQlRkpC38An6D/rl6vgqvsxjg3DpfZwW3uNkSogoLLOUPY0x82m3B1ZmPPxeoo61vt4WVL9WiXDPzEBv16kxETE/+VmlvbxtVixqF8f4o/Kl2oL84uKiGQHnRGqIMi7bXR9DB34sNrPcX21Cv9MOb/UWco7LFD2SodyxZQ3IgNO8fvJmkUH8Prc3FVf0dI0kcdPMNHBTzKz+9S8kakjM00lp/IiDpo/BynJdXXq68xb3TO3Aw/8qKmuAmv5GhcNGqIdMAqnNM4omdWIjsQkbbU6unZX32gBn3v9A8ddeFQ4dObvOvt2Z5hEyB3LD3/CoWsL4D18mHELXUZ9hPm4POOoXzrZ7nTB4421H/6nSCjx9cEZJ7H3XC9JJUejtefDv2U7bk4hf5PoaByJ9J8CO1suaF0x3Lk4tsT1nq50XIbE0NvfHNcBj7LH5IuQtN2icWqklDUzSBhhd/JPHXcX8ZR7f+qdJHt85+T6+fK0bIbEO3HqCaIZm8WUi6SZ3pDiUfwmErDfhy12NOUzNbVvcZPh4jQlAM/yFFmWVFickYDlR7K50aPaaWe3TL8bucJ4QUfWkMCpr/O7QmyzJBYYmVHD+ZEskAZkPLc3m4FBeYkOP4A+kSCBxmUozzQPp8tHW12RbIgWTuBgGDgEHAIGAQMAgYBAwCBgGDgEHAIGAQMAgYBAwCBgGDgEHAIOBzBP4PeUfY5s5qVmAAAAAASUVORK5CYII=;" parent="1" vertex="1">
          <mxGeometry x="820" y="290" width="40" height="40" as="geometry" />
        </mxCell>
        <mxCell id="W51DfU3OVTZ-6x-1tD1t-19" value="" style="shape=image;verticalLabelPosition=bottom;labelBackgroundColor=default;verticalAlign=top;aspect=fixed;imageAspect=0;image=data:image/png,iVBORw0KGgoAAAANSUhEUgAAAGQAAABkCAYAAABw4pVUAAAAAXNSR0IArs4c6QAAAERlWElmTU0AKgAAAAgAAYdpAAQAAAABAAAAGgAAAAAAA6ABAAMAAAABAAEAAKACAAQAAAABAAAAZKADAAQAAAABAAAAZAAAAAAvu95BAAAKCklEQVR4Ae1ca2xcRxWembt2nBTSNLvrvKv40aQQoaqNEKCqD6mgtlCp5U+EVEBEVBg/apI2PAQtOD8qQRCQOrVD2tAI8aMiqCiUAgJE+pAKlSCJWhqSOLtblzqFeHfdGMexd707h28crx+7d/fOXu+17yZz/9w7M2fmnPt9d97nDmPmMggYBAwCBgGDgEHAIGAQMAgYBAwCBgGDgEHAPwhw/5hSniUbewZXC2a1cGJrbXNyikuynnm747p3bNN9GlmdhBwmq2kweZJxtrkUrkR0brxmYtN7LWsvlZLzU5rwkzG6tjQOxRudyFBlcc7XLZtYcpNuuX6Qq0pCRMaq1QaP5BJtWR8IViUhPsDNMxMMIZ5B665gQ4g73DzLZQjxDFp3BVclIZyT1H3dcmR1y/RSrioJGUuN9TNGFzSAGSOZPaUh5xuR6pwYAr7m3vgdRPxxRmyFLZrELhKXe2Id9b+3TTeRBgEdBDyrIVsOU+1IYvgaOyNqM/FLkc4bUvlpzd3J5emAZeXHixRR/87rCpooNzryy/Zb2BNCmnrijxLjT6Bw21kyMcpgWeP70bbQ4wqQTfsT6yTR79AElVrm6CNL3hf7av1ZladcHSpPNVwV79TXHxxeiXb9B8XIUKBwxgOQeaypZ7BZhUHGLgcylNgmlhXfVQ9udKh81XBVnJC68cwarOoVNDt2YHDJ16t4kLHOLj0/jjiblHejI78sv4YrTohfX7Ra7DKE+IypgM/sqQpz1OhuPJFsGbPSP6v05pepIS4+gVQ8uRuDku66iZrTzfuSd7soomgWQ0hRaOwTmn+a/DBGhY+qVAzdN2A14A+NvcnJ0Z99jvJiK0+IZMPaJgRoUhbzkv9p5aGpsl3o0CpfRyib3QsiaqZFEeBEuxufiv9oOm4eDxUnJNIZHIAnyPOONhE7GjkffkPJCS4OEmOjpfIgPWVJvl/JuNFRqmzdtMbe+GeIiU/ZyYOWR5p7kjvt0sqJ82SmzrpINNcnbgPU9XbGSElD1yeCr7zcxTO59M374msxff8YF5g05l1oIrJE1rE5Lj0udOQVW3awoTfxkiB2Z7GMagUCH9dtkbbg68VknOK9IcRJaxWmNx4Yup5PZPtVx+Fg/j9XBIJbj7XwCQc52+SCr9FOqqk38QAjeRejQm8P+D5lmEWvxVpDz8FYtCyMuXFi86OO2VjwTPZuDTJUlo8MTyQ/h/svZufXfXZiG/sOic8TOReOxcQdsfbgk8yFE5svdeQh2NST2Iuor+VF2wbxVR6PtYe22iY6RDp36sTucSjjcrLMflo9uHJi86GOwnfmNxTG2cfgK79l477EjfappWMdCQHbWk5pZIlJOTdObH7UUQgbbSiMKx5jWXR78dTiKVp9SPHsV08K5hpj5Nifz+BBJB5s7Emu4ZRtwH7DckwjP6hS0bRfQA16jzidYpIdjXWE+2ZyMWYImY1GiWcAebFEckESZ5M15HbG5zZCuU6bYy8BRLGmpxL9uD2TmbB61a7oXOmCYk3EDALy3ZnnCj5xthHcPGHVZM809STvMYToYsvFUV1RV3KcYRJN3RqEYNCrcXGJ5hFXOY5pM7L+05H/ypZgf8HWphYW+Xl1w+iiDjkSgrbzhE6BmMAeV3JunNj8qCP/nftaQ+dg54v58RULS/afZaOZbsdOXS4b2RsY+8AqkvxWKLcnkLO/B+rkbmXcwCMbxuDE9gC+JUcntmjnmrjK40cdyq78S1jye5Tl92nO2POzlwxjBPfYm19fPYoO3lw6CNzZRYGBcOJeSexZtAYhnTy6Mmiq9kfaQm1Kfk4N2fiT91fIJWUMtnU1VpGcrOW8djwd4mSFOZchKdiNmIPc8i5L3oEeclWl0UGndGTDYLAzMoXRZA2B09ku9MnfEkwEqwi7K8HUPdFw8NtsG8/mXoZj0exLCBzKRZi79wigVhzHxHFXtD38Ur42NFn04OSUMT/FhCuLgNpkY/xVEPF0LBE6zLowUbC5lEtnvZrCm6syCEjiMcFlTDKuRkwj2CE6g5JPpupqXxl46NohJy0BDOHSTkImXR8BQfyL0Y7wa/o55koKxqngt4C5IiakiwDaoBPRh1e6JkPpEZjwmRqii7iDnODsSQcRx+SAauccpYyAIwIYOcXl0pFfOgo6CMBrhZ1zkDHJGgjgn5d9/dsbxjVES4oI7FoNlJQwiRoI0IVsWuzTEHQUUYuF3my8OKq+cgSw+/dDu38g3bwhVkvo324ymjyXEcAWScJaShWpHapEkUkF3vB64+VKJg+Doj1nvhyu2MBITFY1znOLjVcydl68W1/2mosVqx3KwKkNJ/4PL6y9ostU27mCtVZiZDUbpylC5LHZkebZGQFsUh2KtoYq7vhwmRBh/dHZBCORQ0AymRSB2m/mwpW8TxISbV35Fmaaph/RRBbH07b3tSxPaIqXJTbVZKkdEX6krJxXqzDxp6PtwXkvkRSDb5oQbJ78ppiQiZ9CgOjNVPrSDi/xmNmawvkWcGU8hapS8nBiL43xc9lqAiik/Hikc1XUSzuna4hyOYSiXi+VVW3ZxMY5F/d7TYbCZ4YQBOq4fBZbuoNVC5wHhqNmpPGtbkO/8VcPii8ocg4hJ9vrL5JgPy6Quloj4JiAxb4vRNrDv10oCOYQopSmx8e6UUv6F8oA3+pBMwX3zm2RjuDhhbSxgBDlm8sFaf3cuJCGLqQuNfFjJD6JHzd/vZB6la4CQlRkpC38An6D/rl6vgqvsxjg3DpfZwW3uNkSogoLLOUPY0x82m3B1ZmPPxeoo61vt4WVL9WiXDPzEBv16kxETE/+VmlvbxtVixqF8f4o/Kl2oL84uKiGQHnRGqIMi7bXR9DB34sNrPcX21Cv9MOb/UWco7LFD2SodyxZQ3IgNO8fvJmkUH8Prc3FVf0dI0kcdPMNHBTzKz+9S8kakjM00lp/IiDpo/BynJdXXq68xb3TO3Aw/8qKmuAmv5GhcNGqIdMAqnNM4omdWIjsQkbbU6unZX32gBn3v9A8ddeFQ4dObvOvt2Z5hEyB3LD3/CoWsL4D18mHELXUZ9hPm4POOoXzrZ7nTB4421H/6nSCjx9cEZJ7H3XC9JJUejtefDv2U7bk4hf5PoaByJ9J8CO1suaF0x3Lk4tsT1nq50XIbE0NvfHNcBj7LH5IuQtN2icWqklDUzSBhhd/JPHXcX8ZR7f+qdJHt85+T6+fK0bIbEO3HqCaIZm8WUi6SZ3pDiUfwmErDfhy12NOUzNbVvcZPh4jQlAM/yFFmWVFickYDlR7K50aPaaWe3TL8bucJ4QUfWkMCpr/O7QmyzJBYYmVHD+ZEskAZkPLc3m4FBeYkOP4A+kSCBxmUozzQPp8tHW12RbIgWTuBgGDgEHAIGAQMAgYBAwCBgGDgEHAIGAQMAgYBAwCBgGDgEHAIOBzBP4PeUfY5s5qVmAAAAAASUVORK5CYII=;" parent="1" vertex="1">
          <mxGeometry x="820" y="400" width="40" height="40" as="geometry" />
        </mxCell>
        <mxCell id="W51DfU3OVTZ-6x-1tD1t-20" value="" style="rounded=0;whiteSpace=wrap;html=1;" parent="1" vertex="1">
          <mxGeometry x="930" y="200" width="120" height="270" as="geometry" />
        </mxCell>
        <mxCell id="W51DfU3OVTZ-6x-1tD1t-21" value="BackEnd API Server" style="text;html=1;align=center;verticalAlign=middle;whiteSpace=wrap;rounded=0;" parent="1" vertex="1">
          <mxGeometry x="730" y="150" width="150" height="20" as="geometry" />
        </mxCell>
        <mxCell id="W51DfU3OVTZ-6x-1tD1t-22" value="" style="shape=image;verticalLabelPosition=bottom;labelBackgroundColor=default;verticalAlign=top;aspect=fixed;imageAspect=0;image=data:image/png,iVBORw0KGgoAAAANSUhEUgAAAGQAAABkCAYAAABw4pVUAAAAAXNSR0IArs4c6QAAAERlWElmTU0AKgAAAAgAAYdpAAQAAAABAAAAGgAAAAAAA6ABAAMAAAABAAEAAKACAAQAAAABAAAAZKADAAQAAAABAAAAZAAAAAAvu95BAAANaElEQVR4Ae1cC3RUxRn+5+6GzQsVMQQQFT1WRVqfYNUKWmnVgrXWHntqfYIlym5ijdIkGxSuAfLgUcU8oNQCFrX10HN8HI9Q61EgPoMKtlCxR4FjFc1DC5JNssnunX5zl3v33t1Ndm9YCJzMnHNz/5n5/5m53z/zz/wzsyGSQSIgEZAISAQkAhIBiYBEQCIgEZAISAQkAhIBiYBEQCIgEZAISAQkAhIBiYBEQCIgEZAISAQkAhIBiYBEQCIgETjGEWDHePudN99f+AMibRUETyNi/yTGnibOn6Kq+q+dF5Z+CVf6izzKS5w04VXS6N/E6GkiZTwRn0EaL6ArJ4ZoyrR3aeNGPpBfMAhHiLeDOLuVquuf04Ev9U0mxmswUi6Fcv4BRT1FYbafMrSdtGD5x0daOYNPIWXetTBVZ1Bm3iRSVe0g4IzKfCVQzCPI81iU8BVxMZK0BqpevsuSftjIwaeQkqIx5Na2ksYeo+q6hXHIqsUnUnfXGOTDnNHteK6FkrrxroASF0OJoTiZNCYMPoUI8Py+6/H3efT8KVS1fFOfeJZ5zySFVxNXfgGTthUmbQZVNmzrU+YQMgenQgRgZd7HYKKup3b3eKqtDeoYqqqbOlunUVbGJlIf22fDtcx7HeJrMFqOJ4XNpMq6p2z5aYooaSrn2CsmlD0H4GZRrjbDbLwwRwpNpmDPK2aaQVQ3bCAl43xM/puxTF5L/sIqmK+045f2Ao32H/XvJUsCMEPPYsXltbXV0/Mw4gdsaUakclkzfdI8FcvkP8F8lVGw9QlkpdXKDF6FCJBd9AzM1nfJP+tKA3NSV3ZQuzLVjMcS69aFqaZhJpJr8Uyncl9VLMuhxAefY2hFq7FpL11xyTWYE86hxi3rzKymprBJ90a8sWU9TbrkdGT7aPL391Fj07u9sTpJH9wjRCDlEisoupFKCkc7AU7n9QTuhel6D3PKYiqbdbFj+QQCUiELG14CLtswE6gJ8Ok7SV3ThUXATWDCnKP8mdS7MvsWSJ4rFYIujnm5mJg2neZ4L08OWQzHwob/oohyKPRc6sqtjMl1HJUKEZBV1b1JTFlBYTiLZbOGOUbRM+KPkNmCBUIhld071rG8RUAqxABDCVXDx8gj5h5lJKX8FntiGs0GfwYxV3HKcgkYpUIMUDSx1OWfk2f4TiPJ0bumfjP4d8BHuYPUgmxHshZmqRATDIaDK/qrZQfYzEmZ4KwOS+gTqDtjesoyMYxSIQYgnCZixSR6ef9DgK2G5/8lzFcpFRRk9KcgqRCBmjAxjM6msPav/oBoyuiblLwWZZ1CJ7lvMdMdEFIhAqygJwd/XZiQ4U9Ygt833BJLjeQ9DXAUv8V5Sml/Nh+lQgTMPT2RDcLug2+RVj5rGvyTZwTpKNSs3A/PZoXulwTbbnAkC2apEIFYbte36NUhcntO1gEU2+pcQU/XfoRt9nP0NCd/3NrjUApOGeEwOtwNlgoRQIstEMY+JkU7T8e9u/UCvE9FGsME/YCe5uTPwhVfgH0ZnolU7n3AiemSCjGA1thbIMXRLoK+BBabKr+H9307lf721Ei6g7+ZvALyH2PVtYS6WndBMcU0e7aYq/oMUiEmPKweGvgZ9rNOgfkaqye7kcbpbVJCzs881IZ2ygxcAIX8Cs/7KKeKMjp3UVlhAcru9VCr1wyznYOJ8PtegIk6Fc4dzkP4meTJOxFn7OMwSt6C+boGtxv7f+YhVmzigoTGH8LU3UiK624SJ5AxQY4QKyBcuwvRrzGZX4hOXKl77TX1O7DxeCd6+ErEh1jZHdHiqmpl/WJysfOg4CzioW1YMIjdARmSIpDoXKPceweuD81NKpsaA8PRr4/83jYo5W6ryOA+wrUiYaU3bou/DNe45UOaNIFo0qVj6I0mnIEcYphwxXYawl8hTXuGJl+yB0fI20WJcg5ximuJdxwuzgUdXy0t92IpzX4JczgVk/x4zEnuSNU8ABO2gSqX34w4P5jotFWDmH9Rw0dUXJzlEAH4M+wldP+ToYx3IFsBhbwHtxwXuuv3IG7euGdUMmMouTNLkXQ1MoRjJLzU18gdftDx7W+/7yxUiLW7JsrS8OD3F/QahbpqaNEq+z4RMg81cJXcnTTyJk78OlSH2+vKaHzH8cnK5RDIrWg2FzTt6ojzGPH7uMamwBccm4J8CKalCThu6OnOrDuh+rP/GTKBefkmuCIt55HmiBUqL7wNy+m1wGMzDVF+Smrtt4aM9a1AGU8CxDkYTpfhgeOC23yMT6OwspH8RXlW5j5poViiv+uyooxIWZfpZbPsNX3K9iPzgJo/IkB5b3HOcdkN96O4Mi4VZcRWhXJE52mC/N2pKEPIw393A9jLQVS4M7u2dqqjkzuOkaunwlmcTJ3hbbjKik4UH9xguCY+WU8ZiR4gtg38veTbk13Z2Lc56FDZc9BxNdwgT2/A1uwSzpWJRqmc0SZXiKZnLWjebaSl8sbIqGQ8+hMEzvi7OFu/J2dny3a2DpQl8KIzPYHh+3+ID3qCcZgfBMiexiksHMdbLayJyar6eVTq+wBL3yeA+3qs2laTJ+DVt24OSmDYilFhC3uiMW1mSvZS3xLg95hynDpMWif0OiJD157R7xjXtJ9YhXlImeVUGeK6CQzr96zluEN0a+78lg9jlSF4WO0nwVy1dQNk7rTKaJynflulpv4FKOMc1FyF980UzH6N1KLjjPJMO2ok4F0bpdlw8nQn17y7YzpkhplyjK0CbbOlZl4aCB1Ixk6yFjV0wZcfWeMp0cVjMmGmzPNvjI5g5oKWT5PJ5hzIEPte0aBQfjSSAhVxEnF1SDkDpvIdCob/RkVFHiEZrxCPIi4Q7zeLZXQ/6N57t34DnBWa/IRhzrVllvixRIqFSPJwvDs9na2qthU/GsK04JqPW/hLxa5wvELUWqyGtNWWVo3HTuVVlridFIcw4vjTCEx7nqobPjGicW+/j8N2Rp++lC2E/T4tlh+9g2POsNn3lCbWuMb0M+HrNCnEqL6qthHXj+ZTR9vIeIUIJs5FD7d+cJEhG/dmvNiWxpWltnh8JC29C4Vg2RkNYQpXH/CPTH1VGBV1Tg33pOUbbBWLjcZFdXsTO4bVK/ZgVLyIJevPdSHObqCHCk+nBXW7bYWU+y7CTDHZTOPam/Bg3zbjh5co4Ex7mXHlFFENVj23sCH8FvgBtlrFSMKIwhk3341l6gdM42uy57e8aWNyGtm7g9Moez1Oi+iNP/EIEdzc9ahFyEUhPssSj5A89jQt6eiIK6K/CUPV5u05lHMWFHEfVj0vY1S3JSoL+S50mmFQxkXI/43GWGP73JFiEdL/INzPwxR6V4iwa+K+qhE4n2k78RLX98WyLRp20actL0ajh59i6p6u7Irm2pz5zdNyKlrysr8ZmtkT9JyYzU7yCA9ZPN0sOAyOXI3RGtAYMNpcI96v946BUIhoKWOPmw0WN/IyOm4z4y4qwqdFzwc4X0ri10UDGISfILYxmLoDFwwiYZi6b18WuSqMeOTNTrPHHcbGD5RC2rqfhe363GwuZ/eBxi8pcLGM4DRGwzcUyn4yGj3KKHVvp7VFkVFiTXFIqwOlkJUre+C4rDCbK34DUe67OnJ3FU6jERjOnsWPKAdJgM0bgDnEALen+w+oP9rDuHY/JlAxUg4GnA304F9PpBo4t5s1Ve3XHdhUqxN8ATXPviRiFNmdffTzLnjnZkfCvlTWgYdGjbOWjZ3g2e1z8zWxiyse0F8E1BE3WnmgoHYzzi00EjvmjNZXgWZ+EqL3Sd0QXLqyDXPJWiMK5x5XZdhZZlzDP2tZ3PCVGU9OvGdj6WyZT+UFo2xpaYwI34SREp0LI2U/L16ip7Mwf91aneLW/hJ4OO9CrkZ2MXLVliVgux27yvq8BHOHxQx7ziqDkraZcR5zYTsjvDpS3thMk6cPIrEfEivA+AIcsPwaX5BrzxK9KyNmwrRzxMWYMh3Hli/jZsfpep7CSohnlMAbj2PtLQH2gnXMy09tm0NYF6uBYXx9Ns4+jLJdnN2Pw42zsTz+jp7G6XxSlA86eD4F5hlcfbw5fcU1/juDI+xyPejSwhcBK+yWo2pOUyLldaI8+0A1ZKzv5CNEcIvf0bm0H6NnbEJsP54DqHAzRsu1VLPsM8GScqiq20lZHeeC/w60dj2a/B88wZTlHTIKkwSwd0JsFehrc9SWqUxtNU2M2Ezs7AhfjE3GIsa01/FdXzqpAqNskdgdNmSOU/fuDCkZ4zljpZpGL6LO3VBK/Bm9IRDzRnlHcRDXboKtXWih0c4e3I0Su6LWPn9EP6BLzT8D6G4wR5RoHPycbLW5LB0NSW2EpKMmp2WIrZruNrFbYChDlLAVz4ApQzQgU23eRd18Elr1voiLgBFQGlDzV2HeSW0KiIgl/HvIBSQsta9EsXtrBzkxdzgOd7EyMm1/YqEjk5pb2dKMmiYcjtqOvEJS/wqxPG7FPtUOXLt5FUvrVbRkRUvq4pJTIiARkAhIBCQCEgGJgERAIiARkAhIBCQCEgGJgERAIiARkAhIBCQCEgGJgERAIiARkAhIBCQCEgGJgERAIiARkAgMCAL/BxoOKK0olaiOAAAAAElFTkSuQmCC;" parent="1" vertex="1">
          <mxGeometry x="940" y="200" width="100" height="100" as="geometry" />
        </mxCell>
        <mxCell id="W51DfU3OVTZ-6x-1tD1t-23" value="" style="shape=image;verticalLabelPosition=bottom;labelBackgroundColor=default;verticalAlign=top;aspect=fixed;imageAspect=0;image=data:image/png,iVBORw0KGgoAAAANSUhEUgAAAGQAAABkCAYAAABw4pVUAAAAAXNSR0IArs4c6QAAAERlWElmTU0AKgAAAAgAAYdpAAQAAAABAAAAGgAAAAAAA6ABAAMAAAABAAEAAKACAAQAAAABAAAAZKADAAQAAAABAAAAZAAAAAAvu95BAAAVBUlEQVR4Ae1dC5RV1Xn+z7mPmbnzAAZmIDMDAwrER9rGAiLEduHKQ9AQV4yN0dY2rSQ2MT5iNCY2LoziK6xEkUYb10pdMdUYbZNaC8akUbIUEAj4wpQEqTxmBpgH87xz3/f0+w6emzuXs+89jzswrnX3WmfOuefs/e+9/2/v/7X3OSNSSRUOVDhQ4UCFAxUOVDhQ4UCFAxUOVDhQ4UCFAxUOVDgwcTigTZymeGvJu8uWVYfj0Y8buszXDa3VEGMYR5eRDbw4c9u2vd6onrpS71tAjixd+KFMRv9qVs9epovWYM9C403D0B/RU5nHW3buHLXPM7Huvu8A6Vq84HxD0281NLkYjXfUfmQaNAz5EcBZ27ZtW8fEgmBsaxx1aGyRk//LENG7zlt0saZp/wRxtNhHC5KGaD81JLN25tadb/mgM25FJzQg3cvOrksnI1caRvZmYDKvnFwAyJs1Q+5veXXHf4MJ+Dkx0oQE5MjSpc0ZSX9ZjOx1kEqN48uq7F5N9O9nJPjozK1bY+NbV2nqEwqQQ0v+fK5uBK4TzfgCgKgpbH5w1iwJnXmWxF96UYxksvCxr9/QMd1gxmOpUHbd7Jd3HvZFzEfhCQEIFbXo+vVZw7gUeiKg7I+uS/OPfyL61KkS+8VGif7Xs5L+v30nZNcbGqTqvCVS/ZHzZWj9Q5Lp7Tkhj/KGIQlD054O6Mb9H9i8421lvnF6cMoAsRS1GMY3RdeWOO1fzYXLZcrqO3PZk7vfklEAk9rzO6lafByE8J/+GVSOLokd26Xvhq/k8rq5QPtgyMmvoV0eOpl65qQDsnfF3KqagcbLtaxxm+jyQTdMMvNylvzkGQnOnFmy6LFbb5H4y78pma9kBiP7hqbrDyfCtY/P2bQpXjK/jwwnDZA8RY0hq0311GaAUfXhc6T+S9dK+OwPFSWR6emRo59eKZLNFs3n7qFxRDT9B0Za1rdt397nrqyz3OMOyMGlC04PZPXrVYraSTODs2dLzUc/LpEVF0mgpdVJETNPas8eiT77c4k9v6GsRoBhaCPoz5O6ZB9o2bpzj+MGOcg4boB0LV68IKsbN8B0vbKoolY0UgsGpWb5RVL7mcsk9MEzFLmc3c729cEA+E8Z/fnP3Cn4EuShZ7LwZTYi27rWV3f8T4nsjh6XFZCcohb5BoIaSx21oEQmLRwWfcoUHI0SaGzMXeu4DuB+9fl/KVptrS0VIzYq2cFByfb3m+dMX69pACTfetM2v5+b6PsuiOJ1rVWRJ7VNm9JeaZUFEEtR02LSNPE3nF32pPazn5NJN96UK5X83dvS/82vmwD48VUy0D1gsgSht9wkMPQwzOZH03p4Xfsrr/S7Kcu8vgA5/BfnNGUzoWsRX7oWU3ea28rLkh8Ma3rscQnNm2+SG7jrDhl9nlLEW4qlUnJsZFT6R2PSkzVkajgkcyY3SH1V2BVBwzCGNdEe0/T091q2vHbAaWFPgBw9f9Fp6bTcAEN9FQhEVJXpdXUSgjUUnD1HglDGWk21aJFarFgMmSM4feiQpPb+QVLvYNnChzVEv2PaI49KNjoiRz91sRhxd5ZpBm76QDQmx6KjEkumct05+t4VmVQb0KUtUiNtk+oFOjGXp9RFTs9ocm/r1h1bSuV3ThmUOpcsgl7I3myIfgkK2s5lffIU0xqq/ujHJHzGmaaDVqoR2ZERSby6RWK/fEHiWzZ7Amfyt1abIA+tf7BUdbnn+bMhi9lQmCxA8u+HAUZzdZWcPqVBwgF1UCG/jHWdzGT3ZdOZ1afvev0J617huSQgaKZ+eMm5l2AK3lxMUWvV1VK/6otSe+llwmuvKX1gvwyuewAAbXVFwlT8mH3pzuLLHarZYFeZHSBWPo7GhlBQTseMacTMd5OGRuOPnvnGW9fYlSkKSNfShVcBiNuBSdHQt15XL1Mf/hcJzS2aza5++3sQIQQl+vRT9s893C01G+xIFgMkP38V9FhrpFrmABzdgREQTST65u9601bn2oodVtaxdNEX4QA9XgoM5o186pLygUGCEAsN1/yjI3HH7MUSBpR09Q/JO0d6pQ/K2k40FSvv5JmO9uoaWOlQt0Tj6UEV3aDqQSyRXB2BD+AkmUoZHXfaICc0k7t3e9IlhbSpgFsg75saaqUfirsPijuVzhRmc/2b2qMRltdpsMAaYIk5SUnU2zM8QivuoCq/EpBkKisRZ3hIYvs2Gbj7Tpn0VagZhZOmaoDd/fiml2Tg3jV2jzzfC0EBNzfUAZg6icYTACYmQ7E4XKcTlTkrsb8rUgNrqxU6o92heCKt0URSekaiAt1h0lXRZl4lIIeHhg9Uh4Mt1VBcTtLoxg0ShyKuvexyiaxcKYGptiJSScpIJSWxZYuMPPWkJN94XZnP7wMqzTpYSTzSmaxp6tLvSGbGzpp85ZqbDQChwaE/QqYPxxLSMzQs0TxTulT78+sdk3djW9tLkIrL6jEamutrJeKwISYRKLYwVvbCCxZK+KyzJTirHUHBFmEYxEzofKb/mKQPHpT0vnck8douSf52h9D8PRWJzLNmzSAcQiYyZhj9aKuD79EAZe1QP3DCDdCpHBqROJw1u4Qsmy7q6LjA7lnR4c+GclrzqAmFZBqAmQxroqRjBCcv+fZu8xhTKTql1dSIMTo+W6S0UFgCWCcJtc+WYPssHLMlOzQkgw98d0wzCn+Q+blZA50wDJFWjxkUhHhymrDaaXr43dARnHleU1FA8onSbDx0bEC6hwIypTZiguN01OTooNHlAEOvr5dAa6uE5pwmQRwMyZvX7e1jLDN67D2f/5tc9U4uCMKU2honWc08FHW9w1ETDILiJGEAKEekY0CsihKwFI4MDptTckpdRJowa6gwxyMFpjWB4Qi7gOkhnMn44GkAwKF+Gnrkn02xOB5tY4ilF7qH4kllGCjr1bSxCisvoxIQoFgUbnq8HBk8JiHGQ2AiDs2/vPrHXOqTJkn9P6ySqoWLJNA2UzSISa8psWunRP/j370WV5YbgTgjEBTjXpNmGL9WlaX4tE1Q6s/h4SdtHypu1gIQ6pkGBhEdKsETSEGRVi/9iNT+1eVStejcEx47uWHEoFT/9q9LhlGc0GIejkwGH4spaoe0DoCnay7s6PihasAXmyFOIwe5ttC8i/YNSDgYkGl1tdIIkeZaz8AgiL/ysnkwpF576Wek5sIVruJjgw89WBYwKAX6MRt6IAVSBWZxrtPOLv6AAXrftObmf1u4c+cfw8k2ZZUz5JdtbfPShvEbEPqATTlHt6ggG2EATAUwfvQMY2U1F10sdZ+7QgIzijfH3PpzIzY8OlSwdh2hoqZvQnHsVFHb0QkH9MFwOLT28N59931WRKk38ssqAWGmX7S1NaJBN+LyWgDjeUsnK5kMYKhnnDqarP+ElC/OoGcKQzX0Y3quulIyR4+cUNTJDV+KOq8C6tJmOpEwnZkg8jajseta29p/pj3zTFFgigJi1fFSU1NdIhxehVDmt2BReNvC8x4x6hmGMOhw+kn0MSjOIisvyYmzgTXfFkYM3KYoQxuYDX4UNeushfPMQUcdapcg9nqwqHfP7G271oHxtkZTSUD4hlIoMfJ30NE3Ifo7fwDBuW40PpGy90LtGmJ3rwq7SijKPOmZPIK0zAhKsK1NBu67J+9J8cucooYjF/fZFwIxHYOMzqWTNBiLP33W629dbpdXCQgarHUuXXSTZOXrAKM5vzA7MwyzrxvhgVEXcZp8GtZ1ED4MgeHhdkOBRcPNuVyKmoyrw0wgEG7N/WLrIUor6+C5C28J4v0JM6hT0GM2htOSBy0rAkOAvKQ0FOhROJrdCMJNjlDPRKBnvPsfqjYw9M018z5EXTM2y7WqcoX3zb7D75o+qU6qMcu9pKFYQrnrUUkxkUrdFAyUjr9TJ8yZNkUohynKvAJDo6gfDKNIrMXUb8KM8atnyKw4BkwPLCbS9pMIxGSEVKj/KG69JEoTDrzBWKJLVV5JOZVhqLI0IBZhytE5OCiPuQgzwNi/B9OT4pDeMI8agE1/xk1syWpPuRQ1/SjqOa8hIku802hgm0olJSBY9twfCoVaOQPcJJq1MxsnY0q7D7oV1kMzlAFNxs4YASAwxfQMN7dBHJgDwq+iDsDEZn3N9XWuor5WH8wZj6g2gXBjACkBSRlGat/RXvEaDuEWmRaEsrmWwrXsXh+ym17y4YEhExi2hyKN9IO6JmnoAz4fxRtVw/Gkp1lpMZFnAk4DgwOAoLhNfo0GJSBWQ/yGQ2hFTYeTNA2yl2EIP+sFFIEjmPY8yp1Maw8zgu0MQEy5TeXy7ksCYjWMVkoXRikZ6iUcwk5y1E2FTqC1Qzrl2Gxgtc/r2VfcDZV68e6hV6Kq9joGxCLA1TCauYx8egmHcPBZfgctn56hqHKp06pzPM4Eogn6gW3xkvyE4RF+V4ZPlICAb8pC7ACtBzKUB+W6l3AIVx4JqulkQvlxd8Z4J/o49HUmw5dAfM5VdeyzGYb3693r+rOqipWAoEBCVajwPvXMu739pn3OEecmHEKWlMvJLGxX/m+a0DQwuJjmNvlV1FZ9WGl/A6J79YpDh9wDgml1AO85WLQcnRNwXY7rmWhOLBUzUwuJcqbRyTwul6OefZl8uqUCfvl5C6/L5d2D7qu6Ydy9vLNzAzjKiaZMSo5vbG1tw5x+ERnmKUuXeEA8/YRDyBCaywx3uPUxGeibAYvJ1fal9/rjRVHbsQI7PwcjVaG1C//39/eUAsIqrwSEGZ5raYnAFr8amb6Gn+1WIbdnVuInHGICAx1D66zYghEHwCTE1+jMVWO2uU3l8u4Z8pkO8WgNBnyrZTc2Ya/PGMEfl/p8R1FArA79dsGCUF9391W6ZtyVzkqLdd/L2U84hH7IEEIqdADpDGZwMLRBiylSVWWCEYCz6CaVS1Gz1lLRXzixo0Y6+3CvaLeplnJLtv7QkiWNmpH5kqZl+X75DC7iMIjo1yIKwQtuxCiaBiPAi0fshul2eRlm4eZrv+vlZGADo7/YzO00Sj0cj71wxmu7l9u1SwmIsWxZsCsRvQsj6DpkOuE1V79hd6sxOkb0FHSIQcQqh/uIrbJezikAcXy9fMR3GJ7RX66HhF1Gf0fjib55r9m/H6I0ew/Ghu+ChfQNFWLlsoj4vgZjXWQSZS+jqrSMyp3KFYb3G/1lvwbiiW5V/5SAJNPpq4PW5mhVadynTjCjuw3eLSKSpyynOOThah8xCxdJ5VLUVvSXrzNQ3HpJlgOMWJxyi5USkFgqE3f6fggbR8XK6C4b3Acd42cLjbWP+OhgwHQyGf9yq6y5i536wfcSs8/o7/EwfEx6EWpS7YbPB1cJyNGBgf0Ib8+kGekmcfTMYHQXoscEBqKICtRLYgTV3Ef8XkCT6xPFFCctLy6McTDw2k+iQ8s+8HC92Q8Vs8/WsoOb3fBKQPACVeaAx3AIGcEOMezOAB79Bz/WDNfAWZ4H17Frq8PmxjtuvmPHyXwaGX4tP7ab6yzHo9IR17EulvcbhlcCQuJMfsMhtKLMDmKklWMLEad9fMTfFqTjPRv714r+NmIWug06klK5vPuSgFjN9rs7hNbamOguZKpf+W61zc/ZT/SX9XoxGgD4sKrNjgGxCJhKCiLI6+4QApMf3eUWIK4tnOzkJ+jo27tHLEXVXzUgWFPH3FWVM81Uv7tD6Muc1tToe2+XspE2D/wAUSbvHp8ZMp6waZp5SwkILIs0R4KTRPlp7g7BEq+XcIjlZPrdQlSsrYUBv2J5C5/RSuL77b2w9vxsskMs7lcA49sXdXVtLqzD+q0EBGshe1B4hZXRyZlhCYog7svyEg4p5xYitpfzmwG/GdhlSGfTbSqHd49BjRcrjecwwO9e0dm5vVQblDJp44wZTfgS50bseF9YiojqOYn7CYfQkLBsebcj09pT5SU+5kVR2/AgAyCegdi/d0VHh+NP2CkBYQV34J3Wc1ta+BH820EYL2R4T37CIZaTRXCKOXxmeAOBSnOXISIHblM5vHuIpRT49ZSezd5zYVeX6w9kFgUkv0PPz5p1vpHN3ooCrt47zKfBazpeXHP3Eg5heY5eGhP49hTeB8cX2+GAhrgeAgOBs9Fxh0gMqUyKGoLJSGLQ/hT137m8o+Od49Td/3XbfrGAQVWO/3+HXbNywTrEqcjQk53+GIbnbnilFVqyWdARIzj+FRS+s7Kjo7NkgRIZXANi0dvQ1vYniHnegsZcASJK48DKrzqzARzZrj/foSJY4n4cH0Aww/1YnOIKpI80hLY/EjSMtR/r7FS+XuCWvmdArIpeaG+fA9FxI3ZVfAFT1v0eG4sQzjR/GWah4+glfJFH6oTLMilq0uWX/R+OB4MPfnr//oETKvJ5wzcgVv0vTJ/enA2FvoztQ/g4pjbZuu/lzLiS59eq8yrk+B/B+soRhGnoK/lJmE1HMUoegHhbv7Kry9/LJkUaUjZArDo2zp3boMfjf4/dIbdilBd/h9kqpDh7XZ3jKqQZYcb2Ib/7h6Eb3oWGW4eXdH5wwf793l4TU/TP7nbZAbEqATBVEovxxcbbAcxc676Xs7m/C18R4rdVKNZU4oyOHL+3Sx1RbLuQkzbAonwbFX2nprPzyQtEyh9eVjRi3ACx6uMWou4jR64AE2/FvbOs+17PNHPrsB4S1PF+CD5MQMab6yGJlGDZ2SvZXDnMiDcgdr830tn5hNOX/XOFy3Ax7oBYbbzDcjJ1/TbcO8+6P2HOmrbZyGTuX9HVdUr/SdhJAySf8ZYvg8p9OZn5ND1fvwcEAn7PeaZRxoKnBBCr/RtaWz8Mxc0v6V+J46R5h7C+aIBtwJ81F3d0bLPaMxHOpxQQiwEbZ848HWbl9fBlroEidfY5BKuwuzPsL9mIONPq5V1d+PcSEy9NCEAstvyqpWVWUte/hgjAKtzz9mqTRSzvbAX88BXlu6Ejfp/3aMJdTihALO5g1/00WFNfASOvg3Xm+StEiI0kMON+hBmxBpHXQxb9iXyekIBYDDO/QlRVdTWAuQWMbbXulzpDLJkBv5Cm3f+JQ4eUX00oRedUPJ/QgFgMoZOpxWKfByj8jwLnWPcLz6ZXrWmPYWZ8HyHwY4XP3w+/3xeA5DMSltl8vKf3CexLnAVdMwOz4RjE2kF41luwRLoNHcKtSqpwoMKBCgcqHKhwoMKBCgcqHKhwoMKBCgcqHHDKgf8HXCCGZfWM7ukAAAAASUVORK5CYII=;" parent="1" vertex="1">
          <mxGeometry x="940" y="285" width="100" height="100" as="geometry" />
        </mxCell>
        <mxCell id="W51DfU3OVTZ-6x-1tD1t-25" value="" style="shape=image;verticalLabelPosition=bottom;labelBackgroundColor=default;verticalAlign=top;aspect=fixed;imageAspect=0;image=data:image/png,iVBORw0KGgoAAAANSUhEUgAAAGQAAABkCAYAAABw4pVUAAAAAXNSR0IArs4c6QAAAERlWElmTU0AKgAAAAgAAYdpAAQAAAABAAAAGgAAAAAAA6ABAAMAAAABAAEAAKACAAQAAAABAAAAZKADAAQAAAABAAAAZAAAAAAvu95BAAARhklEQVR4Ae0dWXAcxfXNtYd2JeuwZGyMDxwcMDYGbCcQKEIA2ySOA7bjQEhSuaqoCrmKKj5yQLwRAYdUqihSIQeVouKQcESWcWKoYEkYhSPEATuJMRH4AmNLRpZkW9aec/Tk9cSr6OjenZmeXclV+0qr2Xnd897r96a7X3e/7gWoQEUDFQ1UNFDRQEUDFQ1UNFDRQEUDFQ1UNFBeDUjlZeeN27WJayONhrqUhKQlIMEHQLMbLUltAAVqJcWOUWq2IodBhpBDmYAuWSTn4ImcBIucsnV7QCHQJ9nyAdkwd/dp5uudic6sk38S/ptwg6y+fXVV+NzsKkuRl0PYng+aOpNEpal2lRwjVYqKyg4WCICctkxIWyklA/2gm0dlHd5WdbODDGWeaXnw1UywDL1RK6tBbtu4qi6r65+xNbgOYupiEpfPs6aoVaCUVQyuhiTLBumkmVaGyBE7Tf6l6NbzYT27+fEfv3yS+1DACSXVxPqH18fhxOAtZkhaR2qUZVajNnWyKN+1Hk0b5JNmUj1F9spDxrNar/mrJx7p7Hf9vMeMgRtkzf3Xz7fV0AZSBytJXQjb+8BZeCxisNklHQ3Uqw9oJ8w2/aTywz8/9NzbQXIITFtrEiuaoFppNWaFrgJVCoxukIUNmpaUI6C9k/17aL+97slH23uCoB+I4tb+cPkac07kCWyWwkEIxaIh6QSkNL6dqAQpix+8Bxvwiv9GgB3CIuGfHZLBjshAwnitwg/FlwiUE5YR3Zv50pMPdjwuykJYyrXNK28z5od/b4dlMVqoV+WUCTJ+lEEC8hB+H7RAOm3hPV6pAQSAGsiaogDBj12D12oV79FgtXjFDzWiCEgZApGdyW+2PLTj50J0RB5el7h2qX5hzU40hifnVLLQ9ew3QO0zQDmOBujTQe03AbADnQiwVQmsqWiYJg3Q8fjftUHDMY43aaQ0sSMvJW9o+dWOHd6e/H9u3+9FIpGQd8/4xwBpDNX+nxz7G21W1J4cqEfRCD06KL0GSGRilM+WcDzWxgpvTdPAPJd+wmDOCLlq9rCMydrWVONvO/0NPrGu+oM9kVc3ksYo1xi0Cof3pkE7kHVqAm3vzyagL4x6DGsufuD1lNOkmVh7zNlhyF1SBSTOrj7mTC2evFz+GXTC7X7K67uGfOrR1UlSpzjTF2MZa/uzEG87NWFN0Fh5Ar/XJEh+ohaMOREmaaVHN6Y92ht7ZNcug5mhANJT25+ns+aBFct5xgjtz0D8LziwLWN/IGEfEPgUS76wrKthQ3zbSWyCnWmzcTms6SHt9KWxL4xLcIHwZRDJUr7Cok09oWjnkOOOstJLgtMUmPqtKyG5qt5zJywkDzp9sR2nAVh9Ib4fZpNSPoPYEbiEVRjaVOHEHSupJDgJjdF05xUwpbEBjPPDkFpVhzXFdyvsWUacUsFagn0MA0h1aAEDXRTlq4aQCExjUVaPe24yWWRc4SRUfN0dS6Cmrn44vzE3AqmVU4THFMMEXXzRDnOarbjMdXgKkfVlEAizO3M5JTZ4KyTo2LSaLy2C+nPGvxf6/Chkrqgem71k9zIOXFlgRxSNhS+G82UQUiWFWISpq1sOiNwwCxovmM1llf1QHKhhygEyr8xxWbp99ZIqrzJ4NsiKu1bEeCPzchhEOTcG0z+2sGg509fVAM6tFc0nmoFnEILzaEltSqNX+p4NMkU2LwbOZK6Mk36lBOreNn15GShycUXjSwOpT9QBHXGXErgvIfW05ljne+Xt2SCWpnyQycTG1bYSGyR+y0UQi7nvH0yc+shdzhy7MovgB0mn4HmzECSizPNK07NBpJB0DouJTKfBSzg9Ik+vgsaL57JYF8RlPxzHmd3iNaogkUKJaA8pxym4qjQUepSV5t0gNtSwCMGYdQlmHgFk3a2LcIjhWVygM7mZq9zXKj8iSpxZCWwuPTP2XkJZijOFZnt/zKxekdrSaVDb5Ll/HGajfzCKM7ZMx3A4j9AXDI5gAZE4umJlPoPzbBAiA9sgrCmEAoy9JE298SJcPxLrnDNXsyu2Fzl4eXlLCZJCPHdgng1i2TbTIDLnLeEVwi0+dMU5njpyHl3zHA2MUtUSTuuAC86lN4iiyuzBDkconoLc4muv8eyocEnnLme+S9z8rhMstrsvqzZbVwUIe64hRAI2kxLUEHlGDKrrcMIwIDDmhkvicdElaRZYksTWFSvzGZxng0hgsxvzEgzAYtfPFe47RpUdJdcvLMGUCmegLGGbNYq/ixvPD9iSzZzexPDQwKHm/PGTh6JMjAvYq3widG1cQWSBbIPnOGHPBpFNYBtE9UyKVYZhnHJeNUQjnmv88PO8L3RdnIYCBQk2x6O2bclzlL1nLXKZcITyW/DIsul+Hy36nDEr2Hg+m/My2hIpvUFkQgZYJSaaZ9uyyAzjIrOC68yHiZ75Yk4P+O3hREUqhtQ/lnexe89atAkcYRJ1AorYbSkzfxFkVT2u/JUIgjUIujmcgHKJELauCpTLs0EwCPMQkx56GnYsIINEVQhpAb/FI4R2wklppEoAgHtcuEvGNjEPemXh2SBGSj7AY2LV+Y67G0VSnV0drLs7ijreoC2C6thJLd9BsEyt9AbZGmvfw4u5KiTcWJ0UuldmlGhEPYJpUAZxArVH0M1/lTB26+lQ23/y926vnmsIJIDIQ//bWDmWiTUlmMGIUhOsFzRWTnqPi0cstGcc7yWUkmaG6sorQe8GQQ5SyjrBYoTRjCy0Z5wcCqbpK8iYM5gr+AwjkW5nYIGSIkwdsfKOxPkyCGTMwyOJ5L9bDWzh8ulur1I4GDqF+AW1gceqZ8tKsva7hfjz0nwZRM3AqyyCtD0lsWBqCYv+ZMORKG4C4tQQNWu97EdeXwaxdXMrjxndRyEKdg4375QYaKcrChZdX+F4z6plcHVUiK8vg2zRdryMESbMDgv3RxTi5yrNGmJOl7l61m0m3O3kNis3nzGT/fJR3TyV6Pw798ECCb4MAug9KAPG+yy65gxxD8nsTbNIB4qjexhFgbdOL/ebPX5p+zMIclNOk1dYTK0G3FQZ803WIWm9PYARReJNCks+B4eVw9nTyM1QPMGm/QfHiZGHrJeKU2Dn8K05PNplE5MkTqHkBONqScqETBq3kZUI6GZTEOxD9AtwoYuzMKXo5Ld+RfdtkJb7tz+LW5aZ+w9o2I0opI/jlrgSAd14Kgq8lUeMhjc2J9rb/NL3bRDKUOvTd7MY092rPHeQlZ+Fy3QdZ6EDwamcPR1uidNISBrFwgLluPE6C+8WJ2QQOWX9msfIEKwluZeO4clJwXtbctIC7T0xus5WB567O2T/kqcTN3ghg2y2OzbRKspilMWtw7x1Alb+cThceBk8eGwcWhQRehM9OBF/AQ2RW8heWpYHTb1F3v4HERmFDOK4v8eMF1gC0PNFRPuSofZ3wMao+qCAhuuE3/QcdzCKvY5BErwJRTwlqIPqZNQDHm/EDILM5JT5HZ4IuSUYuMep2m7kJN1JGDjc7Sarqzzhf6fwDBVOEJUrCgBZXrAdmkHpk7/rkgw3m7BBWu/t+KfanXuPxYFOvNHgNBE4/dSbeHSimBIpf7qPI/JaUkQUMGeGneM2WESU7tzh1p8+t4eV5gUnbBDKTO0j9/CYZq7EiHyRWnJKh75/HuSRd42P/i0pvKEoewV/4Uzttza4FqZAxkAMsvne7b9Te3XmwMGairuYLmZ3ggXkGpWU2rIPhgaZ5J18BB2AkMyeV6IZ6Nbl8BtiA006EOQFa9Oytza3bRoltM+bQAxCeSs9xt08GbIfqQa6588v2LjVoW/TLjDxMFE2EFjQcD4zie4BrGofFPKsqLeYuZq/90bp1ZuZzH0g/WtpDLPW5vaH5d4cO2YL530yuFVZBMixNHRv3Y3+w3gnZnZNE1w69cLx5NGQ8WdPouMh1gfRfYq8Hb14WlB/64aOB8cz94cJzCCUvdpj3ol+KlOS3GUxEI2HMl7vhWOvvDVq4pE2V8uaFjg1ZFSzhWLEOgZB7RabJqGOCfdlwrLKx6xvMwvsExmoQbY0tz+mHM7tY8qCHXtqZa2rQ8CYz59BZp45CO/vfGtEE2RBVIk4fchws4XGqOochFCX2JiDxq6nVmDAHieGS3s327Xl3u2PF5LXa1qgBqHM1ePaTbhAw6wmNPQmfY341rLU1gPQ/eJep6bMrpk2XGan2XJqxikI7xFfU6FHdFjT2M6CU8bT5s3DzAP6EvgCeNfL+/oXXjJnGk4wLmPJSM81VE/hwZYDvA6a9dR4nHngFJgxAjddeSNosupkqI/WwK7HdoCyV2y8QYmZuBqYvr6W67KH/5P8xZbE84+Nl0wME3gNoeJs2bD9DvUIe7BI01PLpwDd1C8K1l+POc1Vng7tQ6LvMqfW8llcXWkHTk+B4I2ftKO57tYNz3/DFTGPmUpiECpDVW/uGjlJmNWAupGp1XXccws9liHY7PT4vtX1QCNKWCAlLSvUCx9lpQWBY3MNgPLj9+04HNqfu5s3s0rDhahR6Hm6kwXouSjJj9c6R8YyZcL+Sdufu+epH/1FfOqAyaDEJxVubt7+gHYo+w8ObzwGT4PkzWiUgKIIeXxc4dELTKMXSA9B40HoUGbnlua2jbz0IPAlfz0XP5O9SunJMSNUaAHo2CT5KTQKZ49FEIUsSoO65NfV4hlbfGPIPXqfkqy5pigtwQwlN0iis9Os6bMWKycNrh9KZ1GdmsLZiSRYxsKPowbS6GToC/lxAFK/kYl1q4taEi1io8zCkjip+G6UB9bdc8Nl+Aa+ZsdVrqut4HHj1VsHMJh7/PRIKaSkB9OkVvHP36U8pbRFYnuTH3ly4ws7SyHDWJpc5YzNKHrf9eKh9xcunHvAqlfW8n7Ogq4yGvOioOKaN++kNlE58s/TuKrkzfVgnsdfr6GDv+hb2c8/dd/zz+WfK/W1bAahBel68eAbly6Ytc+oVdeCxg5qoj8xkVtQBSoewaqcYHrNwjqxmlQYWtuA3lSBsVAOD9bvSn+1pbkj8MFfoQKU1SBUkDf/emjvootn7SN1aBTeD79gB+8EoqEbqtEYKuZETKFi8dNoX5Gihy5zxhn0SVozQnsyX2y9r2MTn1JpUspuEFqMLjTKpWiUQjWFjpJp7KyJe8o1PKyYe2qbS73QH3ahbm12KS4DFDoGJEPsqrcyn9t8X7tQ9IhLscZlmxCDUCmcmrJozit45OytEOafakmD0nRswugx5mqvvybMOfX6JuwviuxPpyFNkbf1T7bc27Z1nKbKhCibl8Urzy13f3xebqb8Gs5tFT0pgP74S+yFQVDed+d90l/UyXy0puBgLy+X3Gec1t6RP9y6cRvO7U8cTLhBaNHXJ66Nm3WRXcasyPyiqsD+JPxGGqJ/G3IiSZj56TmLy2KQWxJ3NeBU3s3uCw1ml7QkOsWniZkCuUdOCoPkxV17/4rf6B+IfhU9sDyKe6Vr5ZFdKVz3SEF+NxQd7esYUJFdikuuLk4ipc+pXeknnt7QfhuXUZkTipe8zAKt/97KVbl52mZSr/LnMUbIRMcrYTQM/dkIGpjndo+jfMLMKvuytz79QMefRpCb8K+TziBUI+vvXFlvzJQ7zLnhy3hrEr41h02e+k5ut3aULG95cLuvrcu+ebt4cFIaJC/3Z36w/LO52aHfWPWaWGDXGYL4ex9Z7b3s11sTHY/meUy266Q2CFUW/TVpZY6xxZwXXgEh9ui+qFJ128aAhOfMg6FPb3tkG3eSsyidMmSY9AbJ62BNAn9jt0b9ozknuth1M4ZhOuoR/ZByxF4TRNxtXpZSXs8ag+SVsPYHKz9m18LDxuzoRdwjJqkhuvWjoT7rjj82t23LP3s2XM86g+SVuv77N1xtNCg/t2ZFFg8vbuFRtWiIQzgx+TWRfX55HhNxPWsNklfWurtuvMSqh5/QeylJ7nr6/ra9+bTKtaKBigYqGqhooKKBigYqGqhooKKBigYqGqhooLgG/gukgp1lAr++3gAAAABJRU5ErkJggg==;" parent="1" vertex="1">
          <mxGeometry x="940" y="370" width="100" height="100" as="geometry" />
        </mxCell>
        <mxCell id="W51DfU3OVTZ-6x-1tD1t-26" value="" style="shape=image;verticalLabelPosition=bottom;labelBackgroundColor=default;verticalAlign=top;aspect=fixed;imageAspect=0;image=data:image/png,iVBORw0KGgoAAAANSUhEUgAAAGQAAABkCAYAAABw4pVUAAAAAXNSR0IArs4c6QAAAERlWElmTU0AKgAAAAgAAYdpAAQAAAABAAAAGgAAAAAAA6ABAAMAAAABAAEAAKACAAQAAAABAAAAZKADAAQAAAABAAAAZAAAAAAvu95BAAAKCklEQVR4Ae1ca2xcRxWembt2nBTSNLvrvKv40aQQoaqNEKCqD6mgtlCp5U+EVEBEVBg/apI2PAQtOD8qQRCQOrVD2tAI8aMiqCiUAgJE+pAKlSCJWhqSOLtblzqFeHfdGMexd707h28crx+7d/fOXu+17yZz/9w7M2fmnPt9d97nDmPmMggYBAwCBgGDgEHAIGAQMAgYBAwCBgGDgEHAPwhw/5hSniUbewZXC2a1cGJrbXNyikuynnm747p3bNN9GlmdhBwmq2kweZJxtrkUrkR0brxmYtN7LWsvlZLzU5rwkzG6tjQOxRudyFBlcc7XLZtYcpNuuX6Qq0pCRMaq1QaP5BJtWR8IViUhPsDNMxMMIZ5B665gQ4g73DzLZQjxDFp3BVclIZyT1H3dcmR1y/RSrioJGUuN9TNGFzSAGSOZPaUh5xuR6pwYAr7m3vgdRPxxRmyFLZrELhKXe2Id9b+3TTeRBgEdBDyrIVsOU+1IYvgaOyNqM/FLkc4bUvlpzd3J5emAZeXHixRR/87rCpooNzryy/Zb2BNCmnrijxLjT6Bw21kyMcpgWeP70bbQ4wqQTfsT6yTR79AElVrm6CNL3hf7av1ZladcHSpPNVwV79TXHxxeiXb9B8XIUKBwxgOQeaypZ7BZhUHGLgcylNgmlhXfVQ9udKh81XBVnJC68cwarOoVNDt2YHDJ16t4kLHOLj0/jjiblHejI78sv4YrTohfX7Ra7DKE+IypgM/sqQpz1OhuPJFsGbPSP6v05pepIS4+gVQ8uRuDku66iZrTzfuSd7soomgWQ0hRaOwTmn+a/DBGhY+qVAzdN2A14A+NvcnJ0Z99jvJiK0+IZMPaJgRoUhbzkv9p5aGpsl3o0CpfRyib3QsiaqZFEeBEuxufiv9oOm4eDxUnJNIZHIAnyPOONhE7GjkffkPJCS4OEmOjpfIgPWVJvl/JuNFRqmzdtMbe+GeIiU/ZyYOWR5p7kjvt0sqJ82SmzrpINNcnbgPU9XbGSElD1yeCr7zcxTO59M374msxff8YF5g05l1oIrJE1rE5Lj0udOQVW3awoTfxkiB2Z7GMagUCH9dtkbbg68VknOK9IcRJaxWmNx4Yup5PZPtVx+Fg/j9XBIJbj7XwCQc52+SCr9FOqqk38QAjeRejQm8P+D5lmEWvxVpDz8FYtCyMuXFi86OO2VjwTPZuDTJUlo8MTyQ/h/svZufXfXZiG/sOic8TOReOxcQdsfbgk8yFE5svdeQh2NST2Iuor+VF2wbxVR6PtYe22iY6RDp36sTucSjjcrLMflo9uHJi86GOwnfmNxTG2cfgK79l477EjfappWMdCQHbWk5pZIlJOTdObH7UUQgbbSiMKx5jWXR78dTiKVp9SPHsV08K5hpj5Nifz+BBJB5s7Emu4ZRtwH7DckwjP6hS0bRfQA16jzidYpIdjXWE+2ZyMWYImY1GiWcAebFEckESZ5M15HbG5zZCuU6bYy8BRLGmpxL9uD2TmbB61a7oXOmCYk3EDALy3ZnnCj5xthHcPGHVZM809STvMYToYsvFUV1RV3KcYRJN3RqEYNCrcXGJ5hFXOY5pM7L+05H/ypZgf8HWphYW+Xl1w+iiDjkSgrbzhE6BmMAeV3JunNj8qCP/nftaQ+dg54v58RULS/afZaOZbsdOXS4b2RsY+8AqkvxWKLcnkLO/B+rkbmXcwCMbxuDE9gC+JUcntmjnmrjK40cdyq78S1jye5Tl92nO2POzlwxjBPfYm19fPYoO3lw6CNzZRYGBcOJeSexZtAYhnTy6Mmiq9kfaQm1Kfk4N2fiT91fIJWUMtnU1VpGcrOW8djwd4mSFOZchKdiNmIPc8i5L3oEeclWl0UGndGTDYLAzMoXRZA2B09ku9MnfEkwEqwi7K8HUPdFw8NtsG8/mXoZj0exLCBzKRZi79wigVhzHxHFXtD38Ur42NFn04OSUMT/FhCuLgNpkY/xVEPF0LBE6zLowUbC5lEtnvZrCm6syCEjiMcFlTDKuRkwj2CE6g5JPpupqXxl46NohJy0BDOHSTkImXR8BQfyL0Y7wa/o55koKxqngt4C5IiakiwDaoBPRh1e6JkPpEZjwmRqii7iDnODsSQcRx+SAauccpYyAIwIYOcXl0pFfOgo6CMBrhZ1zkDHJGgjgn5d9/dsbxjVES4oI7FoNlJQwiRoI0IVsWuzTEHQUUYuF3my8OKq+cgSw+/dDu38g3bwhVkvo324ymjyXEcAWScJaShWpHapEkUkF3vB64+VKJg+Doj1nvhyu2MBITFY1znOLjVcydl68W1/2mosVqx3KwKkNJ/4PL6y9ostU27mCtVZiZDUbpylC5LHZkebZGQFsUh2KtoYq7vhwmRBh/dHZBCORQ0AymRSB2m/mwpW8TxISbV35Fmaaph/RRBbH07b3tSxPaIqXJTbVZKkdEX6krJxXqzDxp6PtwXkvkRSDb5oQbJ78ppiQiZ9CgOjNVPrSDi/xmNmawvkWcGU8hapS8nBiL43xc9lqAiik/Hikc1XUSzuna4hyOYSiXi+VVW3ZxMY5F/d7TYbCZ4YQBOq4fBZbuoNVC5wHhqNmpPGtbkO/8VcPii8ocg4hJ9vrL5JgPy6Quloj4JiAxb4vRNrDv10oCOYQopSmx8e6UUv6F8oA3+pBMwX3zm2RjuDhhbSxgBDlm8sFaf3cuJCGLqQuNfFjJD6JHzd/vZB6la4CQlRkpC38An6D/rl6vgqvsxjg3DpfZwW3uNkSogoLLOUPY0x82m3B1ZmPPxeoo61vt4WVL9WiXDPzEBv16kxETE/+VmlvbxtVixqF8f4o/Kl2oL84uKiGQHnRGqIMi7bXR9DB34sNrPcX21Cv9MOb/UWco7LFD2SodyxZQ3IgNO8fvJmkUH8Prc3FVf0dI0kcdPMNHBTzKz+9S8kakjM00lp/IiDpo/BynJdXXq68xb3TO3Aw/8qKmuAmv5GhcNGqIdMAqnNM4omdWIjsQkbbU6unZX32gBn3v9A8ddeFQ4dObvOvt2Z5hEyB3LD3/CoWsL4D18mHELXUZ9hPm4POOoXzrZ7nTB4421H/6nSCjx9cEZJ7H3XC9JJUejtefDv2U7bk4hf5PoaByJ9J8CO1suaF0x3Lk4tsT1nq50XIbE0NvfHNcBj7LH5IuQtN2icWqklDUzSBhhd/JPHXcX8ZR7f+qdJHt85+T6+fK0bIbEO3HqCaIZm8WUi6SZ3pDiUfwmErDfhy12NOUzNbVvcZPh4jQlAM/yFFmWVFickYDlR7K50aPaaWe3TL8bucJ4QUfWkMCpr/O7QmyzJBYYmVHD+ZEskAZkPLc3m4FBeYkOP4A+kSCBxmUozzQPp8tHW12RbIgWTuBgGDgEHAIGAQMAgYBAwCBgGDgEHAIGAQMAgYBAwCBgGDgEHAIOBzBP4PeUfY5s5qVmAAAAAASUVORK5CYII=;" parent="1" vertex="1">
          <mxGeometry x="1010" y="200" width="40" height="40" as="geometry" />
        </mxCell>
        <mxCell id="W51DfU3OVTZ-6x-1tD1t-27" value="" style="shape=image;verticalLabelPosition=bottom;labelBackgroundColor=default;verticalAlign=top;aspect=fixed;imageAspect=0;image=data:image/png,iVBORw0KGgoAAAANSUhEUgAAAGQAAABkCAYAAABw4pVUAAAAAXNSR0IArs4c6QAAAERlWElmTU0AKgAAAAgAAYdpAAQAAAABAAAAGgAAAAAAA6ABAAMAAAABAAEAAKACAAQAAAABAAAAZKADAAQAAAABAAAAZAAAAAAvu95BAAAKCklEQVR4Ae1ca2xcRxWembt2nBTSNLvrvKv40aQQoaqNEKCqD6mgtlCp5U+EVEBEVBg/apI2PAQtOD8qQRCQOrVD2tAI8aMiqCiUAgJE+pAKlSCJWhqSOLtblzqFeHfdGMexd707h28crx+7d/fOXu+17yZz/9w7M2fmnPt9d97nDmPmMggYBAwCBgGDgEHAIGAQMAgYBAwCBgGDgEHAPwhw/5hSniUbewZXC2a1cGJrbXNyikuynnm747p3bNN9GlmdhBwmq2kweZJxtrkUrkR0brxmYtN7LWsvlZLzU5rwkzG6tjQOxRudyFBlcc7XLZtYcpNuuX6Qq0pCRMaq1QaP5BJtWR8IViUhPsDNMxMMIZ5B665gQ4g73DzLZQjxDFp3BVclIZyT1H3dcmR1y/RSrioJGUuN9TNGFzSAGSOZPaUh5xuR6pwYAr7m3vgdRPxxRmyFLZrELhKXe2Id9b+3TTeRBgEdBDyrIVsOU+1IYvgaOyNqM/FLkc4bUvlpzd3J5emAZeXHixRR/87rCpooNzryy/Zb2BNCmnrijxLjT6Bw21kyMcpgWeP70bbQ4wqQTfsT6yTR79AElVrm6CNL3hf7av1ZladcHSpPNVwV79TXHxxeiXb9B8XIUKBwxgOQeaypZ7BZhUHGLgcylNgmlhXfVQ9udKh81XBVnJC68cwarOoVNDt2YHDJ16t4kLHOLj0/jjiblHejI78sv4YrTohfX7Ra7DKE+IypgM/sqQpz1OhuPJFsGbPSP6v05pepIS4+gVQ8uRuDku66iZrTzfuSd7soomgWQ0hRaOwTmn+a/DBGhY+qVAzdN2A14A+NvcnJ0Z99jvJiK0+IZMPaJgRoUhbzkv9p5aGpsl3o0CpfRyib3QsiaqZFEeBEuxufiv9oOm4eDxUnJNIZHIAnyPOONhE7GjkffkPJCS4OEmOjpfIgPWVJvl/JuNFRqmzdtMbe+GeIiU/ZyYOWR5p7kjvt0sqJ82SmzrpINNcnbgPU9XbGSElD1yeCr7zcxTO59M374msxff8YF5g05l1oIrJE1rE5Lj0udOQVW3awoTfxkiB2Z7GMagUCH9dtkbbg68VknOK9IcRJaxWmNx4Yup5PZPtVx+Fg/j9XBIJbj7XwCQc52+SCr9FOqqk38QAjeRejQm8P+D5lmEWvxVpDz8FYtCyMuXFi86OO2VjwTPZuDTJUlo8MTyQ/h/svZufXfXZiG/sOic8TOReOxcQdsfbgk8yFE5svdeQh2NST2Iuor+VF2wbxVR6PtYe22iY6RDp36sTucSjjcrLMflo9uHJi86GOwnfmNxTG2cfgK79l477EjfappWMdCQHbWk5pZIlJOTdObH7UUQgbbSiMKx5jWXR78dTiKVp9SPHsV08K5hpj5Nifz+BBJB5s7Emu4ZRtwH7DckwjP6hS0bRfQA16jzidYpIdjXWE+2ZyMWYImY1GiWcAebFEckESZ5M15HbG5zZCuU6bYy8BRLGmpxL9uD2TmbB61a7oXOmCYk3EDALy3ZnnCj5xthHcPGHVZM809STvMYToYsvFUV1RV3KcYRJN3RqEYNCrcXGJ5hFXOY5pM7L+05H/ypZgf8HWphYW+Xl1w+iiDjkSgrbzhE6BmMAeV3JunNj8qCP/nftaQ+dg54v58RULS/afZaOZbsdOXS4b2RsY+8AqkvxWKLcnkLO/B+rkbmXcwCMbxuDE9gC+JUcntmjnmrjK40cdyq78S1jye5Tl92nO2POzlwxjBPfYm19fPYoO3lw6CNzZRYGBcOJeSexZtAYhnTy6Mmiq9kfaQm1Kfk4N2fiT91fIJWUMtnU1VpGcrOW8djwd4mSFOZchKdiNmIPc8i5L3oEeclWl0UGndGTDYLAzMoXRZA2B09ku9MnfEkwEqwi7K8HUPdFw8NtsG8/mXoZj0exLCBzKRZi79wigVhzHxHFXtD38Ur42NFn04OSUMT/FhCuLgNpkY/xVEPF0LBE6zLowUbC5lEtnvZrCm6syCEjiMcFlTDKuRkwj2CE6g5JPpupqXxl46NohJy0BDOHSTkImXR8BQfyL0Y7wa/o55koKxqngt4C5IiakiwDaoBPRh1e6JkPpEZjwmRqii7iDnODsSQcRx+SAauccpYyAIwIYOcXl0pFfOgo6CMBrhZ1zkDHJGgjgn5d9/dsbxjVES4oI7FoNlJQwiRoI0IVsWuzTEHQUUYuF3my8OKq+cgSw+/dDu38g3bwhVkvo324ymjyXEcAWScJaShWpHapEkUkF3vB64+VKJg+Doj1nvhyu2MBITFY1znOLjVcydl68W1/2mosVqx3KwKkNJ/4PL6y9ostU27mCtVZiZDUbpylC5LHZkebZGQFsUh2KtoYq7vhwmRBh/dHZBCORQ0AymRSB2m/mwpW8TxISbV35Fmaaph/RRBbH07b3tSxPaIqXJTbVZKkdEX6krJxXqzDxp6PtwXkvkRSDb5oQbJ78ppiQiZ9CgOjNVPrSDi/xmNmawvkWcGU8hapS8nBiL43xc9lqAiik/Hikc1XUSzuna4hyOYSiXi+VVW3ZxMY5F/d7TYbCZ4YQBOq4fBZbuoNVC5wHhqNmpPGtbkO/8VcPii8ocg4hJ9vrL5JgPy6Quloj4JiAxb4vRNrDv10oCOYQopSmx8e6UUv6F8oA3+pBMwX3zm2RjuDhhbSxgBDlm8sFaf3cuJCGLqQuNfFjJD6JHzd/vZB6la4CQlRkpC38An6D/rl6vgqvsxjg3DpfZwW3uNkSogoLLOUPY0x82m3B1ZmPPxeoo61vt4WVL9WiXDPzEBv16kxETE/+VmlvbxtVixqF8f4o/Kl2oL84uKiGQHnRGqIMi7bXR9DB34sNrPcX21Cv9MOb/UWco7LFD2SodyxZQ3IgNO8fvJmkUH8Prc3FVf0dI0kcdPMNHBTzKz+9S8kakjM00lp/IiDpo/BynJdXXq68xb3TO3Aw/8qKmuAmv5GhcNGqIdMAqnNM4omdWIjsQkbbU6unZX32gBn3v9A8ddeFQ4dObvOvt2Z5hEyB3LD3/CoWsL4D18mHELXUZ9hPm4POOoXzrZ7nTB4421H/6nSCjx9cEZJ7H3XC9JJUejtefDv2U7bk4hf5PoaByJ9J8CO1suaF0x3Lk4tsT1nq50XIbE0NvfHNcBj7LH5IuQtN2icWqklDUzSBhhd/JPHXcX8ZR7f+qdJHt85+T6+fK0bIbEO3HqCaIZm8WUi6SZ3pDiUfwmErDfhy12NOUzNbVvcZPh4jQlAM/yFFmWVFickYDlR7K50aPaaWe3TL8bucJ4QUfWkMCpr/O7QmyzJBYYmVHD+ZEskAZkPLc3m4FBeYkOP4A+kSCBxmUozzQPp8tHW12RbIgWTuBgGDgEHAIGAQMAgYBAwCBgGDgEHAIGAQMAgYBAwCBgGDgEHAIOBzBP4PeUfY5s5qVmAAAAAASUVORK5CYII=;" parent="1" vertex="1">
          <mxGeometry x="1010" y="285" width="40" height="40" as="geometry" />
        </mxCell>
        <mxCell id="W51DfU3OVTZ-6x-1tD1t-28" value="" style="shape=image;verticalLabelPosition=bottom;labelBackgroundColor=default;verticalAlign=top;aspect=fixed;imageAspect=0;image=data:image/png,iVBORw0KGgoAAAANSUhEUgAAAGQAAABkCAYAAABw4pVUAAAAAXNSR0IArs4c6QAAAERlWElmTU0AKgAAAAgAAYdpAAQAAAABAAAAGgAAAAAAA6ABAAMAAAABAAEAAKACAAQAAAABAAAAZKADAAQAAAABAAAAZAAAAAAvu95BAAAKCklEQVR4Ae1ca2xcRxWembt2nBTSNLvrvKv40aQQoaqNEKCqD6mgtlCp5U+EVEBEVBg/apI2PAQtOD8qQRCQOrVD2tAI8aMiqCiUAgJE+pAKlSCJWhqSOLtblzqFeHfdGMexd707h28crx+7d/fOXu+17yZz/9w7M2fmnPt9d97nDmPmMggYBAwCBgGDgEHAIGAQMAgYBAwCBgGDgEHAPwhw/5hSniUbewZXC2a1cGJrbXNyikuynnm747p3bNN9GlmdhBwmq2kweZJxtrkUrkR0brxmYtN7LWsvlZLzU5rwkzG6tjQOxRudyFBlcc7XLZtYcpNuuX6Qq0pCRMaq1QaP5BJtWR8IViUhPsDNMxMMIZ5B665gQ4g73DzLZQjxDFp3BVclIZyT1H3dcmR1y/RSrioJGUuN9TNGFzSAGSOZPaUh5xuR6pwYAr7m3vgdRPxxRmyFLZrELhKXe2Id9b+3TTeRBgEdBDyrIVsOU+1IYvgaOyNqM/FLkc4bUvlpzd3J5emAZeXHixRR/87rCpooNzryy/Zb2BNCmnrijxLjT6Bw21kyMcpgWeP70bbQ4wqQTfsT6yTR79AElVrm6CNL3hf7av1ZladcHSpPNVwV79TXHxxeiXb9B8XIUKBwxgOQeaypZ7BZhUHGLgcylNgmlhXfVQ9udKh81XBVnJC68cwarOoVNDt2YHDJ16t4kLHOLj0/jjiblHejI78sv4YrTohfX7Ra7DKE+IypgM/sqQpz1OhuPJFsGbPSP6v05pepIS4+gVQ8uRuDku66iZrTzfuSd7soomgWQ0hRaOwTmn+a/DBGhY+qVAzdN2A14A+NvcnJ0Z99jvJiK0+IZMPaJgRoUhbzkv9p5aGpsl3o0CpfRyib3QsiaqZFEeBEuxufiv9oOm4eDxUnJNIZHIAnyPOONhE7GjkffkPJCS4OEmOjpfIgPWVJvl/JuNFRqmzdtMbe+GeIiU/ZyYOWR5p7kjvt0sqJ82SmzrpINNcnbgPU9XbGSElD1yeCr7zcxTO59M374msxff8YF5g05l1oIrJE1rE5Lj0udOQVW3awoTfxkiB2Z7GMagUCH9dtkbbg68VknOK9IcRJaxWmNx4Yup5PZPtVx+Fg/j9XBIJbj7XwCQc52+SCr9FOqqk38QAjeRejQm8P+D5lmEWvxVpDz8FYtCyMuXFi86OO2VjwTPZuDTJUlo8MTyQ/h/svZufXfXZiG/sOic8TOReOxcQdsfbgk8yFE5svdeQh2NST2Iuor+VF2wbxVR6PtYe22iY6RDp36sTucSjjcrLMflo9uHJi86GOwnfmNxTG2cfgK79l477EjfappWMdCQHbWk5pZIlJOTdObH7UUQgbbSiMKx5jWXR78dTiKVp9SPHsV08K5hpj5Nifz+BBJB5s7Emu4ZRtwH7DckwjP6hS0bRfQA16jzidYpIdjXWE+2ZyMWYImY1GiWcAebFEckESZ5M15HbG5zZCuU6bYy8BRLGmpxL9uD2TmbB61a7oXOmCYk3EDALy3ZnnCj5xthHcPGHVZM809STvMYToYsvFUV1RV3KcYRJN3RqEYNCrcXGJ5hFXOY5pM7L+05H/ypZgf8HWphYW+Xl1w+iiDjkSgrbzhE6BmMAeV3JunNj8qCP/nftaQ+dg54v58RULS/afZaOZbsdOXS4b2RsY+8AqkvxWKLcnkLO/B+rkbmXcwCMbxuDE9gC+JUcntmjnmrjK40cdyq78S1jye5Tl92nO2POzlwxjBPfYm19fPYoO3lw6CNzZRYGBcOJeSexZtAYhnTy6Mmiq9kfaQm1Kfk4N2fiT91fIJWUMtnU1VpGcrOW8djwd4mSFOZchKdiNmIPc8i5L3oEeclWl0UGndGTDYLAzMoXRZA2B09ku9MnfEkwEqwi7K8HUPdFw8NtsG8/mXoZj0exLCBzKRZi79wigVhzHxHFXtD38Ur42NFn04OSUMT/FhCuLgNpkY/xVEPF0LBE6zLowUbC5lEtnvZrCm6syCEjiMcFlTDKuRkwj2CE6g5JPpupqXxl46NohJy0BDOHSTkImXR8BQfyL0Y7wa/o55koKxqngt4C5IiakiwDaoBPRh1e6JkPpEZjwmRqii7iDnODsSQcRx+SAauccpYyAIwIYOcXl0pFfOgo6CMBrhZ1zkDHJGgjgn5d9/dsbxjVES4oI7FoNlJQwiRoI0IVsWuzTEHQUUYuF3my8OKq+cgSw+/dDu38g3bwhVkvo324ymjyXEcAWScJaShWpHapEkUkF3vB64+VKJg+Doj1nvhyu2MBITFY1znOLjVcydl68W1/2mosVqx3KwKkNJ/4PL6y9ostU27mCtVZiZDUbpylC5LHZkebZGQFsUh2KtoYq7vhwmRBh/dHZBCORQ0AymRSB2m/mwpW8TxISbV35Fmaaph/RRBbH07b3tSxPaIqXJTbVZKkdEX6krJxXqzDxp6PtwXkvkRSDb5oQbJ78ppiQiZ9CgOjNVPrSDi/xmNmawvkWcGU8hapS8nBiL43xc9lqAiik/Hikc1XUSzuna4hyOYSiXi+VVW3ZxMY5F/d7TYbCZ4YQBOq4fBZbuoNVC5wHhqNmpPGtbkO/8VcPii8ocg4hJ9vrL5JgPy6Quloj4JiAxb4vRNrDv10oCOYQopSmx8e6UUv6F8oA3+pBMwX3zm2RjuDhhbSxgBDlm8sFaf3cuJCGLqQuNfFjJD6JHzd/vZB6la4CQlRkpC38An6D/rl6vgqvsxjg3DpfZwW3uNkSogoLLOUPY0x82m3B1ZmPPxeoo61vt4WVL9WiXDPzEBv16kxETE/+VmlvbxtVixqF8f4o/Kl2oL84uKiGQHnRGqIMi7bXR9DB34sNrPcX21Cv9MOb/UWco7LFD2SodyxZQ3IgNO8fvJmkUH8Prc3FVf0dI0kcdPMNHBTzKz+9S8kakjM00lp/IiDpo/BynJdXXq68xb3TO3Aw/8qKmuAmv5GhcNGqIdMAqnNM4omdWIjsQkbbU6unZX32gBn3v9A8ddeFQ4dObvOvt2Z5hEyB3LD3/CoWsL4D18mHELXUZ9hPm4POOoXzrZ7nTB4421H/6nSCjx9cEZJ7H3XC9JJUejtefDv2U7bk4hf5PoaByJ9J8CO1suaF0x3Lk4tsT1nq50XIbE0NvfHNcBj7LH5IuQtN2icWqklDUzSBhhd/JPHXcX8ZR7f+qdJHt85+T6+fK0bIbEO3HqCaIZm8WUi6SZ3pDiUfwmErDfhy12NOUzNbVvcZPh4jQlAM/yFFmWVFickYDlR7K50aPaaWe3TL8bucJ4QUfWkMCpr/O7QmyzJBYYmVHD+ZEskAZkPLc3m4FBeYkOP4A+kSCBxmUozzQPp8tHW12RbIgWTuBgGDgEHAIGAQMAgYBAwCBgGDgEHAIGAQMAgYBAwCBgGDgEHAIOBzBP4PeUfY5s5qVmAAAAAASUVORK5CYII=;" parent="1" vertex="1">
          <mxGeometry x="1010" y="370" width="40" height="40" as="geometry" />
        </mxCell>
        <mxCell id="W51DfU3OVTZ-6x-1tD1t-33" value="" style="rounded=0;whiteSpace=wrap;html=1;" parent="1" vertex="1">
          <mxGeometry x="507.5" y="100" width="120" height="120" as="geometry" />
        </mxCell>
        <mxCell id="W51DfU3OVTZ-6x-1tD1t-31" value="" style="shape=image;verticalLabelPosition=bottom;labelBackgroundColor=default;verticalAlign=top;aspect=fixed;imageAspect=0;image=https://static-00.iconduck.com/assets.00/next-js-icon-2048x2048-5dqjgeku.png;" parent="1" vertex="1">
          <mxGeometry x="520" y="112.5" width="95" height="95" as="geometry" />
        </mxCell>
        <mxCell id="W51DfU3OVTZ-6x-1tD1t-32" value="" style="shape=image;verticalLabelPosition=bottom;labelBackgroundColor=default;verticalAlign=top;aspect=fixed;imageAspect=0;image=data:image/png,iVBORw0KGgoAAAANSUhEUgAAAGQAAABkCAYAAABw4pVUAAAAAXNSR0IArs4c6QAAAERlWElmTU0AKgAAAAgAAYdpAAQAAAABAAAAGgAAAAAAA6ABAAMAAAABAAEAAKACAAQAAAABAAAAZKADAAQAAAABAAAAZAAAAAAvu95BAAAKCklEQVR4Ae1ca2xcRxWembt2nBTSNLvrvKv40aQQoaqNEKCqD6mgtlCp5U+EVEBEVBg/apI2PAQtOD8qQRCQOrVD2tAI8aMiqCiUAgJE+pAKlSCJWhqSOLtblzqFeHfdGMexd707h28crx+7d/fOXu+17yZz/9w7M2fmnPt9d97nDmPmMggYBAwCBgGDgEHAIGAQMAgYBAwCBgGDgEHAPwhw/5hSniUbewZXC2a1cGJrbXNyikuynnm747p3bNN9GlmdhBwmq2kweZJxtrkUrkR0brxmYtN7LWsvlZLzU5rwkzG6tjQOxRudyFBlcc7XLZtYcpNuuX6Qq0pCRMaq1QaP5BJtWR8IViUhPsDNMxMMIZ5B665gQ4g73DzLZQjxDFp3BVclIZyT1H3dcmR1y/RSrioJGUuN9TNGFzSAGSOZPaUh5xuR6pwYAr7m3vgdRPxxRmyFLZrELhKXe2Id9b+3TTeRBgEdBDyrIVsOU+1IYvgaOyNqM/FLkc4bUvlpzd3J5emAZeXHixRR/87rCpooNzryy/Zb2BNCmnrijxLjT6Bw21kyMcpgWeP70bbQ4wqQTfsT6yTR79AElVrm6CNL3hf7av1ZladcHSpPNVwV79TXHxxeiXb9B8XIUKBwxgOQeaypZ7BZhUHGLgcylNgmlhXfVQ9udKh81XBVnJC68cwarOoVNDt2YHDJ16t4kLHOLj0/jjiblHejI78sv4YrTohfX7Ra7DKE+IypgM/sqQpz1OhuPJFsGbPSP6v05pepIS4+gVQ8uRuDku66iZrTzfuSd7soomgWQ0hRaOwTmn+a/DBGhY+qVAzdN2A14A+NvcnJ0Z99jvJiK0+IZMPaJgRoUhbzkv9p5aGpsl3o0CpfRyib3QsiaqZFEeBEuxufiv9oOm4eDxUnJNIZHIAnyPOONhE7GjkffkPJCS4OEmOjpfIgPWVJvl/JuNFRqmzdtMbe+GeIiU/ZyYOWR5p7kjvt0sqJ82SmzrpINNcnbgPU9XbGSElD1yeCr7zcxTO59M374msxff8YF5g05l1oIrJE1rE5Lj0udOQVW3awoTfxkiB2Z7GMagUCH9dtkbbg68VknOK9IcRJaxWmNx4Yup5PZPtVx+Fg/j9XBIJbj7XwCQc52+SCr9FOqqk38QAjeRejQm8P+D5lmEWvxVpDz8FYtCyMuXFi86OO2VjwTPZuDTJUlo8MTyQ/h/svZufXfXZiG/sOic8TOReOxcQdsfbgk8yFE5svdeQh2NST2Iuor+VF2wbxVR6PtYe22iY6RDp36sTucSjjcrLMflo9uHJi86GOwnfmNxTG2cfgK79l477EjfappWMdCQHbWk5pZIlJOTdObH7UUQgbbSiMKx5jWXR78dTiKVp9SPHsV08K5hpj5Nifz+BBJB5s7Emu4ZRtwH7DckwjP6hS0bRfQA16jzidYpIdjXWE+2ZyMWYImY1GiWcAebFEckESZ5M15HbG5zZCuU6bYy8BRLGmpxL9uD2TmbB61a7oXOmCYk3EDALy3ZnnCj5xthHcPGHVZM809STvMYToYsvFUV1RV3KcYRJN3RqEYNCrcXGJ5hFXOY5pM7L+05H/ypZgf8HWphYW+Xl1w+iiDjkSgrbzhE6BmMAeV3JunNj8qCP/nftaQ+dg54v58RULS/afZaOZbsdOXS4b2RsY+8AqkvxWKLcnkLO/B+rkbmXcwCMbxuDE9gC+JUcntmjnmrjK40cdyq78S1jye5Tl92nO2POzlwxjBPfYm19fPYoO3lw6CNzZRYGBcOJeSexZtAYhnTy6Mmiq9kfaQm1Kfk4N2fiT91fIJWUMtnU1VpGcrOW8djwd4mSFOZchKdiNmIPc8i5L3oEeclWl0UGndGTDYLAzMoXRZA2B09ku9MnfEkwEqwi7K8HUPdFw8NtsG8/mXoZj0exLCBzKRZi79wigVhzHxHFXtD38Ur42NFn04OSUMT/FhCuLgNpkY/xVEPF0LBE6zLowUbC5lEtnvZrCm6syCEjiMcFlTDKuRkwj2CE6g5JPpupqXxl46NohJy0BDOHSTkImXR8BQfyL0Y7wa/o55koKxqngt4C5IiakiwDaoBPRh1e6JkPpEZjwmRqii7iDnODsSQcRx+SAauccpYyAIwIYOcXl0pFfOgo6CMBrhZ1zkDHJGgjgn5d9/dsbxjVES4oI7FoNlJQwiRoI0IVsWuzTEHQUUYuF3my8OKq+cgSw+/dDu38g3bwhVkvo324ymjyXEcAWScJaShWpHapEkUkF3vB64+VKJg+Doj1nvhyu2MBITFY1znOLjVcydl68W1/2mosVqx3KwKkNJ/4PL6y9ostU27mCtVZiZDUbpylC5LHZkebZGQFsUh2KtoYq7vhwmRBh/dHZBCORQ0AymRSB2m/mwpW8TxISbV35Fmaaph/RRBbH07b3tSxPaIqXJTbVZKkdEX6krJxXqzDxp6PtwXkvkRSDb5oQbJ78ppiQiZ9CgOjNVPrSDi/xmNmawvkWcGU8hapS8nBiL43xc9lqAiik/Hikc1XUSzuna4hyOYSiXi+VVW3ZxMY5F/d7TYbCZ4YQBOq4fBZbuoNVC5wHhqNmpPGtbkO/8VcPii8ocg4hJ9vrL5JgPy6Quloj4JiAxb4vRNrDv10oCOYQopSmx8e6UUv6F8oA3+pBMwX3zm2RjuDhhbSxgBDlm8sFaf3cuJCGLqQuNfFjJD6JHzd/vZB6la4CQlRkpC38An6D/rl6vgqvsxjg3DpfZwW3uNkSogoLLOUPY0x82m3B1ZmPPxeoo61vt4WVL9WiXDPzEBv16kxETE/+VmlvbxtVixqF8f4o/Kl2oL84uKiGQHnRGqIMi7bXR9DB34sNrPcX21Cv9MOb/UWco7LFD2SodyxZQ3IgNO8fvJmkUH8Prc3FVf0dI0kcdPMNHBTzKz+9S8kakjM00lp/IiDpo/BynJdXXq68xb3TO3Aw/8qKmuAmv5GhcNGqIdMAqnNM4omdWIjsQkbbU6unZX32gBn3v9A8ddeFQ4dObvOvt2Z5hEyB3LD3/CoWsL4D18mHELXUZ9hPm4POOoXzrZ7nTB4421H/6nSCjx9cEZJ7H3XC9JJUejtefDv2U7bk4hf5PoaByJ9J8CO1suaF0x3Lk4tsT1nq50XIbE0NvfHNcBj7LH5IuQtN2icWqklDUzSBhhd/JPHXcX8ZR7f+qdJHt85+T6+fK0bIbEO3HqCaIZm8WUi6SZ3pDiUfwmErDfhy12NOUzNbVvcZPh4jQlAM/yFFmWVFickYDlR7K50aPaaWe3TL8bucJ4QUfWkMCpr/O7QmyzJBYYmVHD+ZEskAZkPLc3m4FBeYkOP4A+kSCBxmUozzQPp8tHW12RbIgWTuBgGDgEHAIGAQMAgYBAwCBgGDgEHAIGAQMAgYBAwCBgGDgEHAIOBzBP4PeUfY5s5qVmAAAAAASUVORK5CYII=;" parent="1" vertex="1">
          <mxGeometry x="580" y="110" width="40" height="40" as="geometry" />
        </mxCell>
        <mxCell id="W51DfU3OVTZ-6x-1tD1t-34" value="&lt;font style=&quot;font-size: 20px;&quot;&gt;Server&lt;/font&gt;" style="text;html=1;align=center;verticalAlign=middle;whiteSpace=wrap;rounded=0;" parent="1" vertex="1">
          <mxGeometry x="730" y="30" width="150" height="20" as="geometry" />
        </mxCell>
        <mxCell id="W51DfU3OVTZ-6x-1tD1t-37" value="" style="endArrow=classic;startArrow=classic;html=1;rounded=0;strokeWidth=4;exitX=0.5;exitY=0;exitDx=0;exitDy=0;entryX=0.5;entryY=1;entryDx=0;entryDy=0;" parent="1" source="W51DfU3OVTZ-6x-1tD1t-8" target="W51DfU3OVTZ-6x-1tD1t-33" edge="1">
          <mxGeometry width="50" height="50" relative="1" as="geometry">
            <mxPoint x="390" y="290" as="sourcePoint" />
            <mxPoint x="590" y="226.67" as="targetPoint" />
          </mxGeometry>
        </mxCell>
        <mxCell id="W51DfU3OVTZ-6x-1tD1t-40" value="" style="endArrow=classic;startArrow=classic;html=1;rounded=0;strokeWidth=4;entryX=0.028;entryY=0.42;entryDx=0;entryDy=0;entryPerimeter=0;" parent="1" edge="1">
          <mxGeometry width="50" height="50" relative="1" as="geometry">
            <mxPoint x="930" y="335" as="sourcePoint" />
            <mxPoint x="865" y="334.99999999999983" as="targetPoint" />
          </mxGeometry>
        </mxCell>
        <mxCell id="W51DfU3OVTZ-6x-1tD1t-42" value="" style="shape=image;verticalLabelPosition=bottom;labelBackgroundColor=default;verticalAlign=top;aspect=fixed;imageAspect=0;image=https://velog.velcdn.com/images/okcorn/post/a138237d-52af-4fc3-8a4b-a55ab6fd8352/image.jpeg;" parent="1" vertex="1">
          <mxGeometry x="962.29" y="85" width="135.41" height="65" as="geometry" />
        </mxCell>
        <mxCell id="W51DfU3OVTZ-6x-1tD1t-43" value="Port #8080" style="text;html=1;align=center;verticalAlign=middle;whiteSpace=wrap;rounded=0;" parent="1" vertex="1">
          <mxGeometry x="730" y="260" width="150" height="20" as="geometry" />
        </mxCell>
        <mxCell id="W51DfU3OVTZ-6x-1tD1t-46" value="Port #8081" style="text;html=1;align=center;verticalAlign=middle;whiteSpace=wrap;rounded=0;" parent="1" vertex="1">
          <mxGeometry x="730" y="370" width="150" height="20" as="geometry" />
        </mxCell>
        <mxCell id="W51DfU3OVTZ-6x-1tD1t-47" value="Port #8082" style="text;html=1;align=center;verticalAlign=middle;whiteSpace=wrap;rounded=0;" parent="1" vertex="1">
          <mxGeometry x="730" y="480" width="150" height="20" as="geometry" />
        </mxCell>
        <mxCell id="W51DfU3OVTZ-6x-1tD1t-48" value="&lt;font style=&quot;font-size: 20px;&quot;&gt;Client&lt;/font&gt;" style="text;html=1;align=center;verticalAlign=middle;whiteSpace=wrap;rounded=0;" parent="1" vertex="1">
          <mxGeometry x="264" y="250" width="150" height="20" as="geometry" />
        </mxCell>
        <mxCell id="W51DfU3OVTZ-6x-1tD1t-49" value="" style="rounded=0;whiteSpace=wrap;html=1;" parent="1" vertex="1">
          <mxGeometry x="279" y="275" width="125" height="125" as="geometry" />
        </mxCell>
        <mxCell id="W51DfU3OVTZ-6x-1tD1t-51" value="FrontEnd Server" style="text;html=1;align=center;verticalAlign=middle;whiteSpace=wrap;rounded=0;" parent="1" vertex="1">
          <mxGeometry x="492.5" y="80" width="150" height="20" as="geometry" />
        </mxCell>
        <mxCell id="W51DfU3OVTZ-6x-1tD1t-52" value="" style="shape=image;verticalLabelPosition=bottom;labelBackgroundColor=default;verticalAlign=top;aspect=fixed;imageAspect=0;image=data:image/png,iVBORw0KGgoAAAANSUhEUgAAAGQAAABkCAYAAABw4pVUAAAAAXNSR0IArs4c6QAAAERlWElmTU0AKgAAAAgAAYdpAAQAAAABAAAAGgAAAAAAA6ABAAMAAAABAAEAAKACAAQAAAABAAAAZKADAAQAAAABAAAAZAAAAAAvu95BAAASZUlEQVR4Ae1dCXgVVZY+VW/Jy0ICWR4h0QQSwhbC2iBoZxhCCFsCEVGbVhvGVtuvRceBdoZWp5tuHbfWz3F6bBQdRgZHelCCURaxpQFboSGsAbKwJCQs2chC1rfUMuc+SFJVb6mq96oetL77ffneXc4959zz17333KUqAKEQskDIAiELhCwQskDIAiELhCwQskDIAiELBNcCVHDF+S9t85pM81Vj0iJLF7PAzNJZFgcXG9XDRgAN5nAnbxoR1hbBmDmeoynWYeFYZyTV3WWG6p4BhqLsutJXqDXA+S89eDVvWUDWrZk/wmTv+a21k51xWxNrTWlhaBPL+2cZEwfOBCe0JzLOJitV1h7H/Szn4bKD/jHTt9YtBcibz86eYHU4142sd07MaHAaDXo90xQP9lQ71KezTQ0D4KGcJ0/v0tfMyrnfEoD84dez146ttS0bd8kRbuT87AXK2yymNPDQmWHjL4xm909bUfZDcWHwUzcNEDQ79eHqmRsnVdmXpjYzdPCb7i6RGWKH85Od5w9nl43+2Q/A6U6hf85NAeTdf817967KrkeGNjtvCSCkZibAVE5nvrnjidPZ0jK900EF5PfPzp0zob5ry8Qae6TeDQuYP1qma1Q3XzqZXjn7H0r/PWB+ChkEDZD3ns/Zf/eRrukWR5DnCIWG8EoWxkHNXd1XM58rS/BKo2GB7oC8/Wru6PHl9iMTLtrDNdQ76KxIbzk2lcqbu+zkV3oK1xWQt17KXZ1f0v3S4HZGVzl6GkjIm491wPE8x0fZj5Y9IMzXMq6bod55PmfdkiNdj/7NDVEy1qXMLJyeYzs+9enTE2VI/SrWBZCNq3N2LzzSmaPbws6vpmpYCdcu1bM7L2c9U36bhlxdrDQH5L9/OevgkkOdUyn4G5u81VoWLVc9p6MZQYlXW9UXvabrgP99Jmf3kpKO7z4YxKL4vA3bFRV3/M3Rl30ZWG2ZZoC89/ys9/OPd+bgNtH3J/AUDN8ZlXToP8Yc0arRmgDyxr/N/pfFhzt/+p2dM3xZm6Ug88vwSXvWj/jAF5nSsoDnkHdeyM/IPdZcmXgNNfseBy7eAQfm2WfMWV7+dSBmCLiHjK5uO/59B4MAQF81Q9Zxem8gYLj4BMIA541vJ9c4IgLh8V2qG30ykip9Y1RDIG3yu4c8uH7xpLzSrjsDEf5drJu2N9L6xcbMR/xtm9+AtA5ii3YOt0OPUa9jPX+bdJPrdRtgXAm1zl8t/AJkwWcFT1JApX41JRmOWi6FQJFYP7osgtq/dszXkmxFSfWA8HjPg6VfJdxtFiOUjBsCldz5EChCc+NabMwhY/YaHozCbCVx1RXyPy38DTLu20o/ODEVph+ugUrmPIw0pkO43qexFA102nAwjMkCKiUVqNh4oGIGAJ3oBN5xDaCnAfiOKuCbjgB/rRJX1EEeUlEexTEQxjMwbUfaboCqGUqA6KVRDQjPwz9SghUHLlbh44JxsGrtPjgz+DxkICgROoBCp2eAcd4iMM7MRQAG9eov+hWo5crnbc3AXdwBXNVm4NsQHB0CZWSAMjmANtvw145//UfxIxlW9RGwtA0+VV64ZfEqjuZe90R0/2fH4c6SC1CfOAjSTekQ5VA/GnriSw9NB/OjT4BhKjp0wifBE7HXPB64K3uBLX0de81Zr1TyBbzL4LQZDY9/BASgfffAHbbU4gVzzhTK875OoaqHsDT3lDcEt80eA+PLrkBifStUW8/CMHMGRAVyh8FoBPPyx8C0BM+CMB5YoIBOmonDWjawFe8De+otHMpYeZYUBzQ+/cT4VBgCgD0AVG7W3UZ3LpAX1E/hzb79FDdi+Z/nJwNjvORWIMi4q6Qa7vvshCun0RrjNyhUbBxYfvMa0KPHCriLo1c6eTjewEJjNw+NXdd3NK2RFFgjKJgw2ABJUd6bxl89Csy3K4C3XRUxpfBpdxkfDU8jAJTRoRoAEUNMONEH+rxr6PR75pf/VVrmKa380WOML3tiIMzb/4OhcMfRWki91ArWxmtQnYA9JUxdT6ESh4Dltf/EJ9r97OeanYeNp5zwZTUDp5p8DxVjE2iYM8wID401QXSYGBwqfhIYZ20C9i8PocWqPI7/wnYFEjfhleJog3Mj8shQwkesqY8aC4oKW3EIH+iDxFWUcrkVVr77Nfbs609tYwL2FAuComBOIZO15a11QN+WIhJjx9Flw0kHrD3qBAKKmjAQwfj5ZDP8BIExGyQ1e6oATswEcAS02yFh6p48y0TzI2Y1KZpUFREtLV46WAkYRJXa5EFQMuH2Pq2sTdfggv0MdOCFZ58B5wnLi6+7gUGGpKXFPfDKAYdqMIi8NgTwpf12Fw/CSxTC03DB8EcclpQPFKL6ChPDDJ3U+h3DxyghVwRIF9fzmBJmvTTFczKhx2LqTUJCY7sLlHazd1DIBC6dM8qbOSj8pNs1V/Qx8zNyDOebwi3dUIk8RSF6OkDqc6IsrRNGdA6sRkrRZTtFgHAUn69Gyc7IMNiZM0pUxdrUDjW2M+AJFHpo2nVvSlCjCZ/mn+7ogfobE7agyO9oPToCy7d74Hn7KoAIsb5+C/FSMZayI/LyQREgOB1kyrMSU/xlWhpcTowRZRJQaj2AYn50hci1JXPGYzttQAyodWhAgFfssoEDZfQFyowH5C/0JfWIDKG7FF2flQeE7F0BpfrMg8NJ55P8cUBW8sKQcKOntIZdNzZZgbsWfQKiD0odcKJRaDFBoQbRozh8fYjemijE4SAQOVaUpWUi0WCjlOxtyQJSsLMAb5GAxKzKVK1KjYOjWe7uK+kpdZ3l0Ib3Zsl2iHAF3o6T8LvHJMZSJk4V1e+POFwTfn8lbGLi8v6kxjELxcDoL0b+SI6tLCBgM86QY+Kr/NN5Y6EnrH+C76WNa+mEK91nwIB7U8LwP/jkEs9I70Dc549OS4BPuBfF+vXsKVIXh5n75AjlAaGZiXJMfJW3R1ngy78f4ZEkKSEdaMlG4RdVjEdaPTLdZJkH47ClerpUrJrFwIyTI5YFhOcMqGVgYd+d6VCfMMCNSdi4aaK8yx08lF+VuKUiCm0Tp3G1Xyd1HKLFOmkp0QxMtBw/WUDQPIq8A1+CWJqGLTjBS4NpmNjVJBO5/oNVvxZE1uE6ifMQ4bk399fyP2aiePexW8JOFhAcUQMGhMg8k5YAJzKTROKN1mRR2m0lLSrVJ3GhXdIjw9ydEK0kGyk2cEAAONUur7cGFM3LArtgQ4mOFA9jZI0Q7EC8OlEwiHUSlQWYMOH4L8dCtofIMVBT3hYTDl9lex8S9PNv1Gh5c2kVAEJ3a6ni7uwMaIyLcrHkujpErMl5RrCDdGseWLFOWurjpGjJhOXOXRYQ7NBd7tX8z2EN/RM803hZxIgcLgU7DI2WmMDu8wwuIPUY3iBZ+Lizk2jjkUBTQIiEiuFWODUqEZzVFSKBkxINOi7LRKJcCQL/lCGSYR0Xq3oFJ08FDgj2Ml1Ob4rmZ0HnqYOitifikJWJJ33BCllWGhKlR73tB3QT7wBjuxxz2dbzPHVUjok/5c2DIuELqw3YlkZRdXLsGqzgJstRjwN0mW7ie3jjcTnmsoAYKGqfHBN/y7/8u3Ro3rNFVJ2cgQ+y6D+XEBkPoixRaNqMSYkbLCIILOGgqP+T4yALSPGi4hJUURct8QNMsLn1G+Tez554PY9PxPMJncMKPGcfYBYCjzrUb9BNKvYOODW74mM5AbKA4CzLURyvqesrVGpXfDdUSV46WpZlgol4lUevQJwHae84XbMHh6vTeomEes7Cr6FAdudUHhBUEW+6n9JNU2T8Rl0RMFy/i04W8+/MtcAQ6YSrgRKD0XF4O88CJkHLGdYJ4Ref14C7dxb1bGSn99L+EoFa/ZnSGAv0NmmelunajlooOrdVxDIB1yTr54drCgq5PLchPxwIKMLw9cn/gjROF9+lT0wLG7a/L+EjoggQJqpznQ8emhRtqvgjlLeI1yUj42jYdm8ETE0KfPiahEPg1nsiYESsuMnll45CVsuzmrTBGxOGp6GR41d6Kxfmix8VYYkkXlBU2ILn456vnUto/U3GhEXDq9kvQXKUeBfYiRuyG0864e2jDmi19TsASuQQb+oJnMCJ9yYcpkjdhraLsPXPS+Hx+MNKWPlNc8YZw4/MbRQ/CV64KSIidXngP/fCQ7Psa/Z2+NX+30JdV52IJzHkw+NNsOfHEfCLO8xAron6epJIWRbSPIO0ex+IgIfHuYNR11oDLxY9DssHHhPJ0iNRww04q5Svr3aJeCi5bC2qEEAiJiwGnpu6GkbHiQ+whCzJSR85XKq6xkHnjY+iRaEbmzaQhinoRbmtwAWVyTD1xmerYKa1Fh6wivfTBGSaRB28AYrahk5bWqjss7SKASHaLdhaWIMVUjTRVIaJgTLA0lH3wz0Zd4OR1mb1TrypTw+thy0H1oHZzMMHWWXCCy8yGvlXXOqMY8bnXpGsQL3zUjxkERa8gVd0HdK7OOUlLL6/8WH5R/DUnn+Cg3WHyJCpvLKEktQtObcHfrHhXtj87Vpg0cVeltKgOxhEjQvOaFVDvaoeQgQs2LroGq5LZA/rCa2WYWh0KsxOzYXs5B/i1orsJXyX6Nauq7C/Yhf8+eRWuHj1XJ868dEU/GFUeV9ar0g1G8Wn5TSreuhVjwUUZ3gTX+P6tV6N8Mb3QnsNvIfrhfdProfU6BTX/JIclQRxlniIMl0/9u90dkEzvoRzqeMKVJ3aC5fqKz32rKdSL3oTo2l+uXPgboBmVTxV9xBsIY29pJOiqHBVkoJITDEsWC7UepSYHsfDy+mVHsu0zKxloyBlZjPuzar7JwCqupNLYbK3hR6llsprzYvu6fHIksLrSKtSqz2WaZ15whFfrBYMooN6QLDStsLit3meu0AY3IrB4AWQqYk2iCfvDeocTjjinAvnVhb6I8YvQFyCzGwB7pr77/r4o63COnSPzY2SNhngiaQLbvlaZ5Bt9lo2eqm/fP0GZHv+9lP4ocuN/grWqx7F4Iv8Tvdd7vzkNrDIvFOuhU4HHNZzC+dWiE/dVDBWP6lLmOdvWYSvsVLDJNk3LWls7wBT41WRfEu4ATZknfa53SKq4Gei1BnLjs+tU+25CsX53UN6mQwwRkzHkUv/gblXoMwv5WG4+sntjbqD0ciFwzlq4FQZ9WSLAwZk06JN+LUX+kGPDr+seO0JDBJA4vDeVe7AJu0FCTjacN44xMT97p5Z5QEfqgQMCNFr++KtH3NGfpVAx5sSpZ1OIHNIf6BgRYq+i0AWzzr22JJ2Fcw+/8/9cv2PaQIIEb9jYfGb+LWAV/xXJfCaVLfYu0qL4yAzQr+rocTF3GcfcnL+3LNzA9f+OgfNACHscH3yS7zHtUkr5dTyMdj6F4RkEbgyRb9FILYTwUiqmTWnapxaPX3RawoIEYTD1495in9Vp5tDvtoCdLe9r3wyLgKt+CUfPQI5kv3KkXRiZl71UK35aw4IUXB7YfFqfBNiZTAnesqO8wd7ff4gi8Ank2q0tpWLnx0MsKv7tj/l5VVN0EOALoAQRV1zCs3cFyyXWDhczU9qh3D5m/+q7dnAhsOfHEN+lz//bJ7qygor6AYIkb+tcNsn0XRESjD2vegbE7olHD/JNFh7z6rcOYgp7YidopU35Q2fgFfq3hhL8+cX3b0et1qW4w6oLjIt1TU4ZHHw2MgWyI0RX+CW6qIm3Y1rjL/idsisvOoMNfX8pdW1hwiV2rF468MWzjASJ3vNj+poO36GD8GIjTZoCkalM4bd1538o2CBQeyly9MqBMJTvKDo7qc44F/G3qLJC6XGtnYwNbfArzIvw9gI2VcwPKkkyiOHSyeZ2E/y887eKyoIQuKmANLbroIti3/O0eyLOIoFdAHPXNcA6eFd8FpaYCeBVcwAvoKJ+aYk73zOGgUXo3vboeXvTQWktyF4vehpHMqeRmBSe/PU/EbUXIS3xp6FRPLVUJWB3JuqYAYy5HbIonkVi1VW15z8lgCkt1XkMh7nNL1AUVyh0l5D2+0wnamF1bf33yrp5eftlyzsSG8gNwqbwfjA0rxKfe+SelPEQ/4tBYhQv7xdeVZTT/gj+HW8ArxANRb3jciddTd947paYW1yic91BznFI+9n4CsBXc1M2P4Wk+HJZbkVZ4TybpW4WwNvFcU86TF3y+IpJgM7g+FgMt7uTUA3OnKJ6dyYyREtEehkkW/ksk589RjX7PhnaO9hTaX4ptHm++dVfuiJXygvZIGQBUIWCFkgZIGQBUIWCFkgZIGQBUIWCFkA4P8B4T/VbFvEFqoAAAAASUVORK5CYII=;" parent="1" vertex="1">
          <mxGeometry x="289" y="290" width="100" height="100" as="geometry" />
        </mxCell>
        <mxCell id="W51DfU3OVTZ-6x-1tD1t-53" value="Reverse Proxy Server" style="text;html=1;align=center;verticalAlign=middle;whiteSpace=wrap;rounded=0;" parent="1" vertex="1">
          <mxGeometry x="492.5" y="385" width="150" height="20" as="geometry" />
        </mxCell>
        <mxCell id="W51DfU3OVTZ-6x-1tD1t-54" value="" style="endArrow=classic;startArrow=classic;html=1;rounded=0;strokeWidth=4;exitX=0.5;exitY=0;exitDx=0;exitDy=0;entryX=0.5;entryY=1;entryDx=0;entryDy=0;" parent="1" source="W51DfU3OVTZ-6x-1tD1t-8" target="W51DfU3OVTZ-6x-1tD1t-33" edge="1">
          <mxGeometry width="50" height="50" relative="1" as="geometry">
            <mxPoint x="568" y="285" as="sourcePoint" />
            <mxPoint x="568" y="220" as="targetPoint" />
            <Array as="points">
              <mxPoint x="568" y="250" />
            </Array>
          </mxGeometry>
        </mxCell>
        <mxCell id="W51DfU3OVTZ-6x-1tD1t-58" value="" style="endArrow=classic;startArrow=classic;html=1;rounded=0;strokeWidth=4;entryX=1.008;entryY=0.441;entryDx=0;entryDy=0;entryPerimeter=0;" parent="1" target="W51DfU3OVTZ-6x-1tD1t-52" edge="1">
          <mxGeometry width="50" height="50" relative="1" as="geometry">
            <mxPoint x="523" y="334.58000000000004" as="sourcePoint" />
            <mxPoint x="330" y="334.58000000000004" as="targetPoint" />
          </mxGeometry>
        </mxCell>
      </root>
    </mxGraphModel>
  </diagram>
</mxfile>
